{"glyphs":{"0":{"ha":895,"x_min":12,"x_max":877,"o":"m 877 -134 q 846 -239 877 -199 q 758 -282 814 -282 q 613 -20 613 -282 q 650 190 613 106 q 768 285 691 285 q 840 243 813 285 q 867 137 867 201 l 840 117 q 823 207 840 170 q 768 251 804 251 q 686 -20 686 251 q 766 -252 686 -252 q 847 -124 847 -252 l 877 -134 m 578 -134 q 541 -245 578 -201 q 469 -282 509 -282 q 357 -134 357 -282 l 387 -124 q 466 -258 387 -258 q 523 -167 523 -258 q 484 -64 523 -109 q 410 8 448 -28 q 371 133 371 58 q 398 245 371 204 q 469 286 426 286 q 542 244 515 286 q 569 138 569 203 l 541 118 q 524 208 541 171 q 469 254 505 254 q 413 161 413 254 q 456 62 413 102 q 536 -5 495 29 q 578 -134 578 -53 m 341 -281 l 251 -281 l 220 -89 l 79 -89 l 47 -281 l 12 -281 l 142 476 l 210 476 l 341 -281 m 210 -41 l 145 338 l 85 -41 l 210 -41 z "},"1":{"ha":833,"x_min":19,"x_max":822,"o":"m 822 -58 q 781 -224 822 -165 q 664 -282 740 -282 q 513 -180 564 -282 q 468 72 468 -87 q 519 349 468 240 q 682 471 576 471 q 780 417 741 471 q 818 281 818 364 l 785 258 q 682 426 785 426 q 581 296 608 426 q 568 77 568 224 q 673 -242 568 -242 q 789 -40 789 -242 l 822 -58 m 406 -279 l 312 -279 l 312 304 l 214 -279 l 159 -279 l 58 296 l 58 -279 l 19 -279 l 19 468 l 115 468 l 214 -79 l 312 468 l 406 468 l 406 -279 z "},"2":{"ha":555,"x_min":35,"x_max":551,"o":"m 551 -47 q 496 -220 551 -153 q 376 -279 444 -279 q 223 -178 276 -279 q 174 73 174 -85 q 227 346 174 236 q 389 468 286 468 q 537 254 527 468 l 487 220 l 487 261 q 465 370 487 326 q 397 422 441 422 q 287 296 320 422 q 263 77 263 207 q 288 -124 263 -40 q 392 -239 322 -239 q 476 -174 446 -239 q 505 -32 505 -114 l 505 5 l 551 -10 l 551 -47 m 122 -279 l 35 -279 l 35 458 l 122 458 l 122 -279 z "},"3":{"ha":897,"x_min":9,"x_max":870,"o":"m 71 412 l 71 -212 l 125 -212 q 207 -164 166 -212 q 258 -57 241 -125 q 269 71 265 -34 q 256 195 269 88 q 215 315 245 266 q 123 412 157 412 l 71 412 m 9 -279 l 9 480 l 98 480 q 207 399 132 480 q 272 290 253 349 q 315 73 306 184 q 272 -146 323 -19 q 223 -220 254 -191 q 125 -279 158 -279 l 9 -279 m 870 -132 q 840 -237 870 -198 q 751 -282 808 -282 q 607 -18 607 -282 q 642 191 607 106 q 760 286 684 286 q 833 244 808 286 q 861 138 861 202 l 833 118 q 816 208 833 168 q 760 252 798 252 q 679 -18 679 252 q 759 -250 679 -250 q 842 -122 842 -250 l 870 -132 m 572 -132 q 534 -243 572 -201 q 462 -282 503 -282 q 351 -132 351 -282 l 380 -122 q 459 -258 380 -258 q 516 -165 516 -258 q 477 -62 516 -106 l 404 9 q 364 134 364 61 q 391 247 364 203 q 462 288 420 288 q 535 245 509 288 q 562 140 562 203 l 534 119 q 517 209 534 172 q 462 255 500 255 q 406 164 406 255 q 450 64 406 104 l 528 -4 q 572 -132 572 -52 z "},"4":{"ha":577,"x_min":145,"x_max":635,"o":"m 635 701 q 559 515 635 597 q 379 412 483 432 l 379 210 l 516 210 l 516 175 l 379 175 l 379 3 l 283 3 l 283 175 l 145 175 l 145 210 l 283 210 l 283 494 q 393 469 334 469 q 491 529 458 469 q 517 648 517 578 q 497 757 517 703 q 416 873 471 822 q 290 933 354 933 q 223 909 254 933 l 223 966 q 347 991 281 991 q 552 906 468 991 q 635 701 635 822 z "},"5":{"ha":711,"x_min":129,"x_max":772,"o":"m 772 633 l 498 319 l 498 144 l 608 144 l 608 102 l 500 102 l 500 -1 l 400 -1 l 400 102 l 290 102 l 290 144 l 400 144 l 400 319 l 129 633 l 452 980 l 772 633 m 667 602 l 431 865 l 235 652 l 471 382 l 667 602 z "},"6":{"ha":730,"x_min":121,"x_max":790,"o":"m 790 689 l 524 689 l 708 503 l 667 464 l 507 628 l 507 221 l 614 221 l 614 187 l 507 187 l 507 0 l 404 0 l 404 187 l 296 187 l 296 221 l 404 221 l 404 628 l 241 464 l 203 503 l 389 689 l 121 689 l 121 749 l 387 749 l 199 937 l 240 978 l 429 789 l 429 896 l 482 896 l 482 789 l 671 979 l 714 936 l 525 749 l 790 749 l 790 689 z "},"7":{"ha":1175,"x_min":36,"x_max":1140,"o":"m 679 760 q 648 648 679 701 q 628 612 629 615 q 616 529 616 581 q 513 676 513 572 q 528 742 513 703 q 550 802 541 772 q 559 885 559 831 q 575 985 559 935 q 612 919 586 953 q 657 857 645 880 q 679 760 679 812 m 903 693 l 618 203 l 555 174 l 272 665 l 335 693 l 596 241 l 842 665 l 903 693 m 1140 546 l 1078 517 l 1021 517 l 618 21 l 555 -7 l 132 517 l 36 517 l 98 546 l 193 546 l 599 43 l 983 517 l 1044 546 l 1140 546 m 639 760 q 614 857 639 818 q 611 803 614 839 q 593 753 602 778 q 575 676 575 703 q 596 621 575 646 q 614 669 600 644 q 639 760 639 725 z "},"8":{"ha":966,"x_min":32,"x_max":939,"o":"m 868 0 l 32 0 l 456 546 l 456 732 l 329 606 l 503 987 l 668 607 l 543 732 l 543 546 l 939 43 l 868 0 m 475 505 l 121 52 l 831 52 l 475 505 z "},"9":{"ha":688,"x_min":52,"x_max":635,"o":"m 309 965 q 199 898 241 965 q 157 730 157 831 q 225 504 157 593 q 371 416 293 416 q 482 485 433 416 q 531 654 531 553 q 466 862 531 758 q 309 965 401 965 m 144 -17 l 144 16 q 366 137 264 24 q 524 454 467 251 q 344 391 460 391 q 201 430 271 391 q 92 540 131 469 q 52 690 52 612 q 91 840 52 769 q 188 950 129 911 q 303 989 248 989 q 552 879 468 989 q 635 627 635 769 q 494 196 635 410 q 144 -17 352 -17 z "},"\u0000":{"ha":0,"x_min":0,"x_max":0,"o":""}," ":{"ha":345,"x_min":0,"x_max":0,"o":""},"!":{"ha":456,"x_min":140,"x_max":310,"o":"m 212 222 l 179 925 q 193 972 179 956 q 235 987 208 987 q 278 972 264 987 q 292 925 292 956 l 237 222 l 212 222 m 151 113 l 207 170 q 227 180 217 180 q 248 169 235 180 l 302 111 q 310 91 310 100 q 300 70 310 81 l 246 10 q 227 -3 233 -3 q 207 6 216 -3 l 147 75 q 140 92 140 83 q 151 113 140 102 z "},"\"":{"ha":456,"x_min":68,"x_max":390,"o":"m 134 751 l 113 751 l 71 995 q 68 1017 68 1010 q 82 1056 68 1042 q 123 1069 96 1069 q 164 1056 149 1069 q 178 1018 178 1043 q 176 995 178 1013 l 134 751 m 345 751 l 325 751 l 283 995 q 280 1017 280 1010 q 294 1056 280 1042 q 334 1069 308 1069 q 375 1056 361 1069 q 390 1018 390 1043 q 387 995 390 1013 l 345 751 z "},"#":{"ha":906,"x_min":79,"x_max":827,"o":"m 404 583 l 347 386 l 511 386 l 569 583 l 404 583 m 456 972 l 519 972 l 424 649 l 588 649 l 684 972 l 747 972 l 651 649 l 827 649 l 807 583 l 631 583 l 575 387 l 764 387 l 744 320 l 554 320 l 459 0 l 397 0 l 491 320 l 328 320 l 232 0 l 170 0 l 264 320 l 79 320 l 100 387 l 283 387 l 342 583 l 142 583 l 161 649 l 361 649 l 456 972 z "},"$":{"ha":1103,"x_min":41,"x_max":1061,"o":"m 1061 493 q 912 134 1061 283 q 551 -16 762 -16 q 192 134 342 -16 q 41 493 41 283 q 192 853 41 704 q 551 1003 342 1003 q 912 853 762 1003 q 1061 493 1061 704 m 994 493 q 864 806 994 676 q 551 936 734 936 q 238 806 368 936 q 109 493 109 676 q 238 180 109 310 q 551 50 368 50 q 864 180 734 50 q 994 493 994 310 z "},"%":{"ha":1092,"x_min":42,"x_max":1050,"o":"m 304 989 q 434 956 371 989 q 532 862 496 923 q 567 732 567 800 q 533 605 567 665 q 436 510 498 544 q 304 475 373 475 q 174 510 237 475 q 77 605 111 544 q 42 732 42 665 q 77 862 42 800 q 175 956 113 923 q 304 989 238 989 m 140 723 q 177 605 149 661 q 250 521 206 550 q 327 494 288 494 q 336 494 332 494 q 414 530 378 496 q 463 623 449 564 q 472 698 472 659 q 469 742 472 720 q 431 861 461 805 q 359 945 401 917 q 281 971 319 971 l 273 971 q 197 936 232 969 q 147 844 161 903 q 137 765 137 805 q 140 723 137 744 m 201 -20 l 839 971 l 896 971 l 260 -20 l 201 -20 m 787 500 q 916 467 853 500 q 1015 372 979 433 q 1050 243 1050 311 q 1016 115 1050 176 q 919 20 981 54 q 787 -14 856 -14 q 656 20 719 -14 q 559 115 594 54 q 525 243 525 176 q 560 372 525 311 q 658 467 595 433 q 787 500 721 500 m 623 233 q 660 116 631 171 q 732 31 689 60 q 811 5 772 5 l 819 5 q 897 41 861 7 q 946 133 932 75 q 955 208 955 170 q 952 252 955 230 q 914 371 944 315 q 842 456 884 427 q 764 481 802 481 l 756 481 q 680 446 715 479 q 630 355 644 413 q 620 275 620 315 q 623 233 620 254 z "},"&":{"ha":1141,"x_min":103,"x_max":1124,"o":"m 713 133 l 337 596 q 215 538 257 596 q 174 399 174 479 q 198 276 174 338 q 267 165 222 215 q 378 79 315 109 q 510 49 441 49 q 625 72 570 49 q 713 133 680 94 m 945 0 q 851 17 907 0 q 738 106 795 34 q 619 23 692 56 q 456 -11 546 -11 q 202 91 300 -11 q 103 353 103 193 q 155 533 103 462 q 307 636 206 605 q 265 715 279 677 q 251 790 251 752 q 303 924 251 861 q 427 986 355 986 q 523 960 473 986 q 535 956 529 956 q 561 986 551 956 l 592 986 l 657 795 l 626 795 q 521 916 589 886 q 425 941 463 941 q 353 910 381 941 q 326 831 326 880 q 395 650 326 742 l 755 195 q 837 361 821 294 q 848 449 848 414 q 806 515 848 515 l 745 515 l 745 549 l 1046 549 l 1046 515 l 985 515 q 886 361 920 515 q 781 163 865 271 q 949 71 855 71 l 960 71 q 1090 157 1057 82 l 1124 157 l 1054 0 l 945 0 z "},"'":{"ha":235,"x_min":68,"x_max":178,"o":"m 134 751 l 113 751 l 71 995 q 68 1017 68 1010 q 82 1056 68 1042 q 123 1069 96 1069 q 164 1056 149 1069 q 178 1018 178 1043 q 176 995 178 1013 l 134 751 z "},"(":{"ha":1108,"x_min":-241,"x_max":1414,"o":"m 595 311 q 473 16 595 138 q 178 -106 351 -106 q -118 16 4 -106 q -241 311 -241 138 q -118 607 -241 484 q 178 730 4 730 q 473 607 351 730 q 595 311 595 484 m 495 174 q 364 495 495 325 q 85 669 227 674 q -66 608 -1 667 q -134 458 -134 544 q -5 135 -134 300 q 262 -34 127 -34 q 420 20 352 -34 q 495 174 495 81 m 245 307 q 224 257 245 277 q 175 237 203 237 q 124 259 144 237 q 104 309 104 280 q 125 358 104 338 q 176 378 146 378 q 224 357 204 378 q 245 307 245 336 m 1414 316 q 1288 614 1414 492 q 991 737 1162 737 q 861 718 915 737 q 986 603 941 677 q 1031 432 1031 528 q 938 208 1031 301 q 713 115 844 115 q 618 138 671 115 q 759 -35 659 32 q 991 -105 864 -105 q 1291 19 1167 -105 q 1414 316 1414 144 m 1334 332 q 1220 68 1334 178 q 945 -41 1105 -41 q 662 96 773 -41 q 774 73 705 67 q 1021 171 919 73 q 1124 409 1124 269 q 1060 599 1124 512 q 933 709 996 686 l 945 709 q 1219 598 1105 709 q 1334 332 1334 488 m 530 -85 l 489 -85 l 768 680 l 810 680 l 530 -85 z "},")":{"ha":667,"x_min":-323,"x_max":987,"o":"m 235 475 q 170 294 235 373 q -8 198 104 214 l -8 53 l 132 53 l 132 21 l -8 21 l -8 -130 l -92 -132 l -92 21 l -233 21 l -233 53 l -92 53 l -92 201 q -261 299 -200 222 q -323 473 -323 376 q -242 670 -323 586 q -49 753 -162 753 q 153 673 70 753 q 235 475 235 592 m 147 418 q 65 616 147 526 q -98 701 -13 701 q -195 654 -156 701 q -233 542 -233 608 q -163 340 -233 432 q 13 241 -87 241 q 111 289 75 241 q 147 418 147 336 m 829 -133 l 736 -133 l 736 53 l 366 53 q 594 311 481 182 q 730 559 730 472 q 689 652 730 614 q 600 689 648 689 q 395 564 469 699 q 490 729 418 673 q 649 779 555 779 q 796 732 736 779 q 856 602 856 684 q 795 429 856 518 q 647 269 748 363 q 456 92 557 186 l 736 92 l 736 207 l 829 302 l 829 92 l 987 92 l 987 53 l 829 53 l 829 -133 m 135 -127 l 90 -127 l 397 717 l 443 717 l 135 -127 z "},"*":{"ha":694,"x_min":148,"x_max":546,"o":"m 338 878 q 313 966 335 926 q 288 1023 288 1010 q 303 1058 288 1044 q 346 1071 319 1071 q 388 1059 371 1071 q 404 1027 404 1046 q 380 966 404 1013 q 355 878 357 925 q 431 929 399 895 q 478 970 466 966 q 492 972 486 972 q 516 966 505 972 q 542 930 534 954 q 546 905 546 917 q 543 886 546 895 q 517 861 536 866 q 505 859 513 859 q 453 865 488 859 q 416 869 434 869 q 361 861 388 869 q 432 805 391 824 q 486 773 478 783 q 494 747 494 761 q 493 736 494 741 q 467 700 488 715 q 427 685 447 685 q 426 686 426 685 q 393 701 405 686 q 378 765 385 713 q 347 850 372 810 q 315 766 321 810 q 302 705 309 715 q 269 686 289 688 l 265 686 q 227 701 246 686 q 200 735 206 715 q 197 749 197 742 q 205 770 197 760 q 261 805 214 782 q 332 861 302 825 q 278 868 304 868 q 242 865 260 868 q 189 857 205 857 q 180 859 183 857 q 152 884 159 865 q 148 904 148 893 q 152 928 148 916 q 176 964 159 952 q 199 972 188 972 q 212 970 205 972 q 262 928 225 966 q 338 878 294 895 z "},"+":{"ha":1203,"x_min":-264,"x_max":1444,"o":"m 758 840 l 600 445 l 600 640 l 382 421 q 447 216 447 330 q 343 -35 447 69 q 92 -138 239 -138 q -159 -35 -55 -138 q -264 216 -264 69 q -159 467 -264 363 q 92 571 -55 571 q 351 460 243 571 l 568 677 l 374 677 l 758 840 m 338 102 q 241 366 338 235 q 18 501 138 501 q -100 448 -51 501 q -149 316 -149 395 q -53 46 -149 171 q 154 -78 43 -78 q 280 -37 230 -78 q 338 102 338 14 m 1444 315 q 1343 98 1444 205 q 1118 -61 1254 3 q 888 -121 988 -121 l 881 -121 q 1197 62 1062 -66 q 1336 324 1336 195 q 1319 430 1336 398 q 1262 462 1302 462 q 1102 275 1142 462 l 974 275 l 974 644 l 788 644 l 788 689 l 974 689 l 974 805 l 1102 805 l 1102 689 l 1392 689 l 1392 644 l 1102 644 l 1102 368 q 1168 471 1116 427 q 1275 515 1220 515 q 1444 315 1444 515 m 495 -96 l 449 -96 l 762 761 l 808 761 l 495 -96 z "},",":{"ha":378,"x_min":81,"x_max":252,"o":"m 161 175 q 221 131 191 175 q 252 28 252 86 q 203 -126 252 -46 q 109 -205 155 -205 l 109 -176 q 168 -47 159 -147 q 81 62 168 33 l 81 90 l 161 175 z "},"-":{"ha":454,"x_min":79,"x_max":376,"o":"m 106 277 q 79 296 79 277 l 79 353 q 106 372 79 372 l 348 372 q 376 353 376 372 l 376 296 q 349 277 376 277 l 106 277 z "},".":{"ha":378,"x_min":87,"x_max":257,"o":"m 98 113 l 154 170 q 174 180 164 180 q 195 169 182 180 l 249 111 q 257 91 257 100 q 248 70 257 81 l 193 10 q 174 -3 180 -3 q 154 6 163 -3 l 94 75 q 87 92 87 83 q 98 113 87 102 z "},"/":{"ha":386,"x_min":9,"x_max":430,"o":"m 63 -34 l 9 -34 l 376 972 l 430 972 l 63 -34 z "},":":{"ha":1103,"x_min":41,"x_max":1061,"o":"m 1061 493 q 912 134 1061 283 q 551 -16 762 -16 q 192 134 342 -16 q 41 493 41 283 q 192 853 41 704 q 551 1003 342 1003 q 912 853 762 1003 q 1061 493 1061 704 m 994 493 q 864 806 994 676 q 551 936 734 936 q 238 806 368 936 q 109 493 109 676 q 238 180 109 310 q 551 50 368 50 q 864 180 734 50 q 994 493 994 310 z "},";":{"ha":1103,"x_min":41,"x_max":1061,"o":"m 1061 493 q 912 134 1061 283 q 551 -16 762 -16 q 192 134 342 -16 q 41 493 41 283 q 192 853 41 704 q 551 1003 342 1003 q 912 853 762 1003 q 1061 493 1061 704 z "},"<":{"ha":688,"x_min":59,"x_max":629,"o":"m 629 728 l 205 485 l 629 244 l 629 131 l 59 457 l 59 513 l 629 842 l 629 728 z "},"=":{"ha":688,"x_min":59,"x_max":629,"o":"m 59 428 l 629 428 l 629 333 l 59 333 l 59 428 m 59 640 l 629 640 l 629 545 l 59 545 l 59 640 z "},">":{"ha":688,"x_min":59,"x_max":629,"o":"m 59 842 l 629 513 l 629 457 l 59 131 l 59 244 l 483 485 l 59 728 l 59 842 z "},"?":{"ha":507,"x_min":90,"x_max":452,"o":"m 90 902 q 254 972 176 972 q 397 926 343 972 q 452 803 452 880 q 430 708 452 756 q 345 582 408 660 q 249 455 284 505 q 214 358 214 404 q 238 230 214 315 l 206 230 q 172 373 172 323 q 251 585 172 447 q 330 794 330 722 q 298 882 330 850 q 210 913 267 913 q 90 859 153 913 l 90 902 m 151 113 l 207 170 q 227 180 217 180 q 248 169 235 180 l 302 111 q 310 91 310 100 q 300 70 310 81 l 246 10 q 227 -3 233 -3 q 207 6 216 -3 l 147 75 q 140 92 140 83 q 151 113 140 102 z "},"@":{"ha":1369,"x_min":68,"x_max":1276,"o":"m 659 422 q 557 368 603 415 q 511 233 511 320 q 554 101 511 160 q 678 42 597 42 q 764 155 744 45 l 764 478 q 659 422 727 435 m 922 20 q 854 32 880 20 q 812 68 829 43 q 757 25 793 43 q 667 6 721 6 q 493 74 569 6 q 416 233 416 142 q 452 346 417 292 q 542 424 488 399 q 660 457 597 448 q 734 486 705 468 q 764 536 764 504 q 736 621 762 583 q 648 659 709 659 q 566 619 600 659 q 532 534 532 579 l 501 534 l 501 642 q 550 669 501 656 q 671 683 600 683 q 802 639 745 682 q 859 532 859 597 l 859 133 q 923 54 859 54 q 1104 183 1048 77 q 1160 443 1160 290 q 1002 809 1146 670 q 677 937 869 937 q 411 843 538 937 q 228 602 283 750 q 182 357 182 481 q 270 11 182 145 q 477 -186 358 -124 q 693 -249 596 -249 q 1083 -108 879 -249 l 1083 -159 q 696 -283 905 -283 q 383 -200 533 -283 q 151 32 233 -117 q 68 345 68 180 q 152 660 68 509 q 386 891 236 810 q 696 972 536 972 q 1109 817 941 972 q 1276 433 1276 661 q 1157 135 1276 250 q 922 20 1038 21 z "},"A":{"ha":1108,"x_min":5,"x_max":1104,"o":"m 1104 267 q 943 -120 1104 40 q 555 -281 783 -281 q 166 -120 327 -281 q 5 267 5 40 q 166 655 5 494 q 555 817 327 817 q 943 655 783 817 q 1104 267 1104 494 m 972 87 q 800 509 972 285 q 433 738 619 744 q 234 656 321 735 q 146 460 146 572 q 315 36 146 252 q 665 -186 489 -186 q 874 -115 784 -186 q 972 87 972 -35 m 644 261 q 616 196 644 222 q 551 170 589 170 q 485 198 511 170 q 458 264 458 227 q 486 329 458 302 q 553 355 513 355 q 617 328 590 355 q 644 261 644 300 z "},"B":{"ha":1055,"x_min":3,"x_max":1049,"o":"m 1049 275 q 884 667 1049 505 q 494 828 719 828 q 322 802 394 828 q 487 652 428 750 q 547 427 547 554 q 424 133 547 255 q 128 11 300 11 q 3 40 73 11 q 189 -186 58 -98 q 494 -279 327 -279 q 887 -115 726 -279 q 1049 275 1049 49 m 944 296 q 794 -51 944 94 q 433 -195 644 -195 q 62 -15 208 -195 q 209 -45 117 -52 q 534 84 399 -45 q 668 397 668 213 q 584 647 668 532 q 418 791 500 761 l 433 791 q 793 645 643 791 q 944 296 944 500 z "},"C":{"ha":566,"x_min":4,"x_max":566,"o":"m 566 322 q 508 154 566 229 q 338 56 450 79 l 338 -105 l 490 -105 l 490 -143 l 338 -143 l 338 -281 l 250 -284 l 250 -143 l 102 -143 l 102 -105 l 250 -105 l 250 54 q 83 148 146 70 q 20 321 20 225 q 187 574 20 494 q 4 832 34 614 q 321 628 86 630 q 483 691 412 628 q 561 832 553 754 q 517 688 561 760 q 390 578 468 607 q 513 481 461 549 q 566 322 566 409 m 481 260 q 404 459 481 370 q 233 549 326 549 q 145 505 180 549 q 111 391 111 462 q 189 190 111 283 q 357 97 267 97 q 481 260 481 97 z "},"D":{"ha":667,"x_min":4,"x_max":669,"o":"m 669 442 q 591 225 669 320 q 379 111 512 131 l 379 -62 l 545 -62 l 545 -99 l 379 -99 l 379 -279 l 279 -282 l 279 -99 l 111 -99 l 111 -62 l 279 -62 l 279 115 q 77 232 151 140 q 4 439 4 324 q 100 673 4 574 q 330 773 196 773 q 571 677 472 773 q 669 442 669 581 m 564 374 q 467 610 564 502 q 271 710 373 710 q 157 655 203 710 q 111 522 111 600 q 195 280 111 391 q 404 162 284 162 q 522 219 479 162 q 564 374 564 277 z "},"E":{"ha":1203,"x_min":7,"x_max":1206,"o":"m 1206 869 l 1022 406 l 1022 634 l 766 378 q 842 138 842 271 q 720 -157 842 -35 q 425 -279 597 -279 q 130 -157 253 -279 q 7 138 7 -35 q 130 432 7 310 q 425 554 253 554 q 728 423 602 554 l 984 678 l 756 678 l 1206 869 m 714 3 q 600 313 714 159 q 338 472 479 472 q 200 410 258 472 q 143 255 143 347 q 255 -62 143 84 q 498 -208 368 -208 q 646 -159 587 -208 q 714 3 714 -100 z "},"F":{"ha":750,"x_min":3,"x_max":744,"o":"m 556 -282 l 446 -282 l 446 -60 l 3 -60 q 276 247 141 94 q 439 543 439 439 q 389 653 439 608 q 282 697 340 697 q 39 548 127 709 q 153 745 67 678 q 341 805 229 805 q 517 748 446 805 q 588 593 588 692 q 515 388 588 494 q 339 196 460 309 q 112 -14 231 98 l 446 -14 l 446 123 l 556 237 l 556 -14 l 744 -14 l 744 -60 l 556 -60 l 556 -282 z "},"G":{"ha":775,"x_min":9,"x_max":780,"o":"m 780 233 q 661 -22 780 104 q 397 -208 556 -134 q 127 -279 244 -279 l 119 -279 q 489 -63 331 -214 q 652 243 652 93 q 633 368 652 331 q 566 406 613 406 q 378 186 425 406 l 227 186 l 227 618 l 9 618 l 9 672 l 227 672 l 227 808 l 378 808 l 378 672 l 719 672 l 719 618 l 378 618 l 378 295 q 455 416 394 364 q 581 469 517 469 q 780 233 780 469 z "},"H":{"ha":681,"x_min":1,"x_max":678,"o":"m 675 347 l 623 399 q 536 585 562 489 l 381 585 l 381 318 q 582 213 513 298 q 651 18 651 127 q 559 -196 651 -109 q 345 -283 468 -283 q 127 -194 217 -283 q 39 20 37 -105 q 102 218 41 138 q 297 318 171 304 l 297 585 l 153 585 q 56 398 144 488 l 3 345 q 73 601 73 492 q 1 905 73 712 l 71 819 q 153 621 142 730 l 297 621 l 297 839 l 381 839 l 381 621 l 536 621 q 621 825 547 724 l 678 903 q 614 608 614 718 q 675 347 614 498 m 545 -48 q 459 164 545 69 q 268 258 374 258 q 166 212 205 258 q 127 92 127 165 q 208 -121 127 -24 q 408 -224 294 -224 q 545 -48 545 -224 z "},"I":{"ha":895,"x_min":1,"x_max":893,"o":"m 893 637 l 802 674 l 802 359 q 661 192 802 193 l 480 192 l 480 -43 l 667 -43 l 667 -83 l 480 -83 l 480 -281 l 404 -281 l 404 -83 l 227 -83 l 227 -43 l 404 -43 l 404 192 l 230 192 q 92 356 92 191 l 92 679 l 1 637 l 132 799 l 262 635 l 177 679 l 177 356 q 270 250 177 249 l 404 250 l 404 676 l 320 635 l 445 801 l 580 635 l 480 676 l 480 250 l 622 250 q 717 360 717 253 l 717 674 l 631 635 l 760 801 l 893 637 z "},"J":{"ha":718,"x_min":1,"x_max":716,"o":"m 613 548 q 538 366 613 442 q 357 290 463 290 q 177 366 252 290 q 102 548 102 442 q 178 726 102 650 q 357 801 254 801 q 538 726 463 801 q 613 548 613 650 m 716 463 q 609 258 710 354 q 410 159 514 167 l 410 -94 l 569 -96 l 569 -136 l 410 -134 l 410 -280 l 317 -281 l 317 -136 l 153 -136 l 153 -96 l 317 -96 l 317 158 q 109 256 197 173 q 1 463 9 346 l 51 496 q 151 306 60 390 q 355 222 242 222 q 565 304 471 222 q 661 486 659 387 l 716 463 m 533 488 q 454 675 533 588 q 300 755 376 755 q 213 713 246 755 q 180 606 180 670 q 258 418 180 505 q 414 330 335 330 q 501 374 469 330 q 533 488 533 418 z "},"K":{"ha":911,"x_min":3,"x_max":915,"o":"m 915 -74 q 854 -218 915 -158 q 710 -279 794 -279 q 565 -218 625 -279 q 505 -74 505 -158 q 551 57 505 1 q 669 128 598 114 q 722 293 722 205 q 646 478 722 399 q 457 557 570 557 q 274 477 351 557 q 197 293 197 398 q 250 128 197 197 q 366 57 319 114 q 412 -74 412 1 q 353 -219 412 -160 q 208 -279 293 -279 q 62 -218 122 -279 q 3 -74 3 -158 q 44 51 3 -4 q 151 124 85 105 q 109 295 109 197 q 203 538 109 435 q 457 646 303 646 q 711 538 608 646 q 810 295 810 435 q 766 124 810 207 q 873 51 831 105 q 915 -74 915 -4 m 848 -83 q 810 8 848 -30 q 720 46 772 46 q 628 8 666 46 q 590 -83 590 -30 q 628 -174 590 -136 q 720 -212 666 -212 q 810 -174 772 -212 q 848 -83 848 -136 m 349 -85 q 310 8 349 -31 q 218 46 271 46 q 125 8 164 46 q 87 -85 87 -31 q 125 -176 87 -138 q 218 -215 164 -215 q 310 -176 271 -215 q 349 -85 349 -138 z "},"L":{"ha":911,"x_min":1,"x_max":912,"o":"m 912 438 q 870 315 912 370 q 764 242 829 261 q 808 72 808 159 q 709 -172 808 -68 q 455 -279 606 -279 q 201 -172 301 -279 q 107 72 107 -70 q 149 242 107 168 q 43 315 84 261 q 1 438 1 370 q 61 584 1 524 q 205 644 121 644 q 351 585 292 644 q 410 438 410 526 q 364 308 410 365 q 249 237 318 252 q 195 73 195 168 q 272 -111 195 -31 q 455 -190 349 -190 q 643 -112 567 -190 q 720 73 720 -33 q 667 237 720 161 q 549 308 596 252 q 503 438 503 365 q 563 585 503 526 q 708 644 623 644 q 852 584 792 644 q 912 438 912 524 m 840 444 q 802 534 840 497 q 714 572 765 572 q 625 534 662 572 q 587 444 587 497 q 625 357 587 394 q 714 319 662 319 q 802 357 765 319 q 840 444 840 394 m 343 447 q 305 538 343 500 q 214 576 267 576 q 123 538 161 576 q 85 447 85 500 q 123 357 85 395 q 214 319 161 319 q 305 357 267 319 q 343 447 343 395 z "},"M":{"ha":774,"x_min":3,"x_max":772,"o":"m 414 -26 q 368 85 414 39 q 258 131 323 131 q 149 85 195 131 q 102 -26 102 39 q 149 -134 102 -87 q 258 -180 196 -180 q 318 -168 292 -180 q 368 -135 345 -156 q 414 -26 414 -90 m 772 405 l 475 108 q 513 -26 513 37 q 438 -205 513 -132 q 258 -280 363 -280 q 78 -205 155 -280 q 3 -26 3 -132 q 78 155 3 80 q 258 230 154 230 q 416 175 357 230 l 709 468 l 772 405 z "},"N":{"ha":873,"x_min":-5,"x_max":869,"o":"m 861 -283 l 7 -283 l 7 -184 l 326 -184 l -5 376 l 113 376 l 433 -170 l 753 376 l 869 376 l 541 -184 l 861 -184 l 861 -283 z "},"O":{"ha":844,"x_min":1,"x_max":843,"o":"m 843 -282 l 1 -282 l 397 399 l 508 399 l 166 -187 l 843 -187 l 843 -282 z "},"P":{"ha":696,"x_min":0,"x_max":694,"o":"m 694 16 l 463 16 l 625 -147 l 557 -214 l 395 -53 l 395 -283 l 298 -283 l 298 -53 l 136 -214 l 68 -147 l 230 16 l 0 16 l 0 112 l 230 112 l 68 274 l 136 342 l 298 180 l 298 411 l 395 411 l 395 180 l 557 342 l 625 274 l 463 112 l 694 112 l 694 16 z "},"Q":{"ha":1108,"x_min":-241,"x_max":1414,"o":"m 595 311 q 473 16 595 138 q 178 -106 351 -106 q -118 16 4 -106 q -241 311 -241 138 q -118 607 -241 484 q 178 730 4 730 q 473 607 351 730 q 595 311 595 484 m 495 174 q 364 495 495 325 q 85 669 227 674 q -66 608 -1 667 q -134 458 -134 544 q -5 135 -134 300 q 262 -34 127 -34 q 420 20 352 -34 q 495 174 495 81 m 245 307 q 224 257 245 277 q 175 237 203 237 q 124 259 144 237 q 104 309 104 280 q 125 358 104 338 q 176 378 146 378 q 224 357 204 378 q 245 307 245 336 m 1414 316 q 1288 614 1414 492 q 991 737 1162 737 q 861 718 915 737 q 986 603 941 677 q 1031 432 1031 528 q 938 208 1031 301 q 713 115 844 115 q 618 138 671 115 q 759 -35 659 32 q 991 -105 864 -105 q 1291 19 1167 -105 q 1414 316 1414 144 m 1334 332 q 1220 68 1334 178 q 945 -41 1105 -41 q 662 96 773 -41 q 774 73 705 67 q 1021 171 919 73 q 1124 409 1124 269 q 1060 599 1124 512 q 933 709 996 686 l 945 709 q 1219 598 1105 709 q 1334 332 1334 488 m 530 -85 l 489 -85 l 768 680 l 810 680 l 530 -85 z "},"R":{"ha":732,"x_min":3,"x_max":732,"o":"m 106 -179 l 625 -179 l 625 349 l 106 349 l 106 -179 m 732 -282 l 3 -282 l 3 452 l 732 452 l 732 -282 z "},"S":{"ha":842,"x_min":-1,"x_max":838,"o":"m 166 -186 l 670 -186 l 418 245 l 166 -186 m 838 -282 l -1 -282 l 418 438 l 838 -282 z "},"T":{"ha":528,"x_min":1,"x_max":528,"o":"m 528 321 l 328 321 l 328 -284 l 199 -284 l 199 321 l 1 321 l 1 378 l 528 378 l 528 321 z "},"U":{"ha":667,"x_min":-323,"x_max":987,"o":"m 235 475 q 170 294 235 373 q -8 198 104 214 l -8 53 l 132 53 l 132 21 l -8 21 l -8 -130 l -92 -132 l -92 21 l -233 21 l -233 53 l -92 53 l -92 201 q -261 299 -200 222 q -323 473 -323 376 q -242 670 -323 586 q -49 753 -162 753 q 153 673 70 753 q 235 475 235 592 m 147 418 q 65 616 147 526 q -98 701 -13 701 q -195 654 -156 701 q -233 542 -233 608 q -163 340 -233 432 q 13 241 -87 241 q 111 289 75 241 q 147 418 147 336 m 829 -133 l 736 -133 l 736 53 l 366 53 q 594 311 481 182 q 730 559 730 472 q 689 652 730 614 q 600 689 648 689 q 395 564 469 699 q 490 729 418 673 q 649 779 555 779 q 796 732 736 779 q 856 602 856 684 q 795 429 856 518 q 647 269 748 363 q 456 92 557 186 l 736 92 l 736 207 l 829 302 l 829 92 l 987 92 l 987 53 l 829 53 l 829 -133 m 135 -127 l 90 -127 l 397 717 l 443 717 l 135 -127 z "},"V":{"ha":227,"x_min":-2,"x_max":871,"o":"m 863 277 l 544 277 l 871 -282 l 756 -282 l 435 262 l 116 -282 l -2 -282 l 328 277 l 9 277 l 9 376 l 863 376 l 863 277 z "},"W":{"ha":849,"x_min":1,"x_max":846,"o":"m 321 -74 q 288 5 321 -27 q 207 38 255 38 q 128 5 161 38 q 96 -74 96 -27 q 128 -155 96 -122 q 209 -187 161 -187 q 288 -155 256 -187 q 321 -74 321 -120 m 751 283 q 717 362 751 330 q 636 397 683 397 q 556 363 589 397 q 524 283 524 331 q 556 203 524 234 q 636 171 589 171 q 717 203 684 171 q 751 283 751 234 m 846 283 q 784 137 846 199 q 636 76 723 76 q 511 117 566 76 l 393 18 q 410 -25 405 -3 q 415 -74 415 -47 q 354 -220 415 -161 q 209 -281 294 -281 q 62 -220 124 -281 q 1 -74 1 -161 q 60 70 1 10 q 207 130 121 129 q 330 90 276 130 l 452 189 q 429 283 429 232 q 490 430 429 370 q 636 490 553 490 q 784 429 723 490 q 846 283 846 368 z "},"X":{"ha":1203,"x_min":-264,"x_max":1444,"o":"m 758 840 l 600 445 l 600 640 l 382 421 q 447 216 447 330 q 343 -35 447 69 q 92 -138 239 -138 q -159 -35 -55 -138 q -264 216 -264 69 q -159 467 -264 363 q 92 571 -55 571 q 351 460 243 571 l 568 677 l 374 677 l 758 840 m 338 102 q 241 366 338 235 q 18 501 138 501 q -100 448 -51 501 q -149 316 -149 395 q -53 46 -149 171 q 154 -78 43 -78 q 280 -37 230 -78 q 338 102 338 14 m 1444 315 q 1343 98 1444 205 q 1118 -61 1254 3 q 888 -121 988 -121 l 881 -121 q 1197 62 1062 -66 q 1336 324 1336 195 q 1319 430 1336 398 q 1262 462 1302 462 q 1102 275 1142 462 l 974 275 l 974 644 l 788 644 l 788 689 l 974 689 l 974 805 l 1102 805 l 1102 689 l 1392 689 l 1392 644 l 1102 644 l 1102 368 q 1168 471 1116 427 q 1275 515 1220 515 q 1444 315 1444 515 m 495 -96 l 449 -96 l 762 761 l 808 761 l 495 -96 z "},"Y":{"ha":1103,"x_min":41,"x_max":1061,"o":"m 1061 493 q 912 134 1061 283 q 551 -16 762 -16 q 192 134 342 -16 q 41 493 41 283 q 192 853 41 704 q 551 1003 342 1003 q 912 853 762 1003 q 1061 493 1061 704 z "},"Z":{"ha":703,"x_min":22,"x_max":685,"o":"m 685 -174 l 626 -274 l 450 -102 l 315 -285 l 252 -237 l 409 -47 l 163 197 l 163 197 l 163 -134 l 22 -134 l 22 659 l 254 659 q 528 422 528 659 q 448 245 528 302 q 307 203 389 203 l 473 35 l 611 205 l 650 168 l 518 -12 l 685 -174 m 380 420 q 334 549 380 502 q 212 597 289 597 l 163 597 l 163 252 q 380 420 380 252 z "},"[":{"ha":514,"x_min":0,"x_max":0,"o":""},"\\":{"ha":386,"x_min":0,"x_max":0,"o":""},"]":{"ha":514,"x_min":0,"x_max":0,"o":""},"^":{"ha":688,"x_min":0,"x_max":0,"o":""},"_":{"ha":694,"x_min":0,"x_max":694,"o":"m 0 -68 l 694 -68 l 694 -109 l 0 -109 l 0 -68 z "},"`":{"ha":694,"x_min":144,"x_max":456,"o":"m 456 732 l 410 732 l 186 869 q 154 896 165 882 q 144 924 144 909 q 158 959 144 945 q 194 972 172 972 q 221 964 208 972 q 259 932 235 956 l 456 732 z "},"a":{"ha":1222,"x_min":2,"x_max":1217,"o":"m 1217 537 q 1173 364 1217 436 q 1055 267 1128 292 l 975 376 q 1115 434 1054 387 q 1176 537 1176 481 q 1116 660 1176 612 q 977 708 1055 708 q 775 597 859 708 q 698 374 698 496 l 698 -281 l 531 -281 l 531 374 q 456 600 531 498 q 264 708 378 708 q 113 667 174 708 q 43 537 43 620 q 104 427 43 476 q 240 368 165 378 l 179 267 q 53 359 103 284 q 2 537 2 435 q 83 716 2 646 q 264 780 161 780 q 493 690 397 780 q 606 469 584 602 l 620 469 q 738 690 644 603 q 978 780 838 780 q 1145 710 1074 780 q 1217 537 1217 641 z "},"b":{"ha":772,"x_min":-1,"x_max":768,"o":"m 768 104 q 656 -167 768 -55 q 384 -279 545 -279 q 116 -171 229 -279 q -1 106 -1 -59 q 87 340 -1 233 q 275 471 168 437 q 12 798 41 550 q 201 589 73 659 q 400 535 296 535 q 734 779 635 535 q 635 578 708 664 q 468 476 559 487 q 671 355 583 454 q 768 104 768 247 m 648 -4 q 543 306 648 173 q 304 439 437 439 q 170 367 227 439 q 113 193 113 294 q 222 -105 113 31 q 456 -240 331 -240 q 588 -171 527 -240 q 648 -4 648 -102 z "},"c":{"ha":901,"x_min":3,"x_max":898,"o":"m 898 -282 l 3 -282 l 3 -275 q 72 -250 43 -275 q 100 -175 100 -226 l 100 669 q 73 744 100 715 q 3 773 45 773 l 3 781 l 898 781 l 898 774 q 832 743 859 774 q 806 669 806 712 l 806 -175 q 832 -250 806 -224 q 898 -275 859 -275 l 898 -282 m 607 -180 l 607 631 q 525 712 607 712 l 336 712 q 264 631 264 712 l 264 -180 q 336 -256 266 -256 l 525 -256 q 587 -238 564 -256 q 607 -180 609 -220 z "},"d":{"ha":1234,"x_min":4,"x_max":1232,"o":"m 1232 386 q 1131 186 1232 262 q 921 119 1040 119 q 728 180 798 119 q 665 313 665 234 q 708 455 665 396 q 820 526 752 514 q 731 374 731 474 q 787 234 731 284 q 920 189 836 189 q 957 193 938 189 q 1053 246 1010 201 q 1097 351 1097 291 q 972 557 1097 488 q 662 619 861 619 q 360 581 511 619 q 74 446 186 533 q 326 668 146 585 q 657 744 487 744 q 1232 386 1232 744 m 1163 19 q 910 -204 1090 -119 q 575 -279 745 -279 q 4 79 4 -279 q 105 275 4 198 q 316 345 197 345 q 508 282 438 345 q 571 150 571 229 q 527 7 571 67 q 414 -65 484 -52 q 505 92 505 -12 q 452 227 505 180 q 316 275 399 275 q 278 272 298 275 q 182 219 226 266 q 138 112 138 172 q 575 -154 138 -154 q 876 -115 726 -154 q 1163 19 1051 -69 z "},"e":{"ha":38,"x_min":504,"x_max":1583,"o":"m 1583 -62 q 1506 -219 1583 -165 q 1322 -268 1437 -268 q 1135 -211 1212 -268 q 1058 -62 1058 -155 q 1130 140 1058 22 q 1265 349 1196 245 q 1337 587 1337 479 q 1115 800 1337 800 q 985 751 1035 800 q 935 629 935 702 q 941 587 935 607 q 972 387 972 440 q 952 280 972 330 q 684 98 882 98 q 541 153 587 98 q 504 257 504 195 q 596 379 504 348 q 551 264 551 348 q 588 180 551 214 q 684 146 624 146 q 829 370 829 146 q 792 595 829 408 q 787 637 787 617 q 875 785 787 731 q 1070 831 954 831 q 1480 560 1480 831 q 1409 338 1480 468 q 1278 125 1344 230 q 1208 -62 1208 3 q 1260 -173 1208 -128 q 1385 -218 1313 -218 q 1501 -166 1455 -218 q 1536 -93 1536 -127 q 1501 -40 1536 -58 q 1432 -81 1472 -81 q 1384 -60 1407 -81 q 1360 -5 1360 -39 q 1382 45 1360 24 q 1435 66 1403 66 q 1540 26 1497 66 q 1583 -62 1583 -14 z "},"f":{"ha":1133,"x_min":2,"x_max":1130,"o":"m 1130 -273 l 1082 -273 q 938 -88 1003 -201 q 795 -273 860 -216 l 713 -273 q 892 -27 810 -177 q 752 374 752 188 q 782 514 752 456 q 869 578 812 571 l 869 649 q 834 715 869 691 q 752 740 799 740 q 673 716 707 740 q 640 649 640 692 l 640 -27 l 494 -27 l 494 649 q 473 721 494 703 q 395 740 452 740 q 288 649 288 740 l 288 -27 l 142 -27 l 142 649 q 59 747 142 747 q 2 725 24 747 q 148 795 28 795 q 240 776 211 795 q 290 703 269 757 q 478 795 338 795 q 647 703 614 795 q 718 777 677 757 q 821 795 754 795 q 945 763 893 795 q 1005 649 1005 723 l 1005 579 q 1097 515 1065 578 q 1128 374 1128 458 q 1066 115 1128 241 q 960 -56 1047 77 q 1130 -273 1050 -187 m 1019 374 q 993 492 1019 448 q 905 543 961 543 q 819 486 851 543 q 791 374 791 439 q 918 11 791 221 q 996 191 979 132 q 1019 374 1019 266 z "},"g":{"ha":908,"x_min":5,"x_max":907,"o":"m 907 -56 l 556 -56 q 704 132 650 1 q 753 391 753 251 q 672 646 753 530 q 451 774 584 774 q 236 646 324 774 q 157 391 157 528 q 208 124 157 239 q 361 -56 262 1 l 5 -56 l 5 56 l 159 56 q 5 391 5 161 q 132 699 5 583 q 451 812 254 812 q 774 699 646 812 q 907 391 907 581 q 736 56 907 172 l 907 56 l 907 -56 m 907 -281 l 5 -281 l 5 -172 l 907 -172 l 907 -281 z "},"h":{"ha":1389,"x_min":3,"x_max":1389,"o":"m 1389 -33 l 1326 -62 q 1343 -136 1343 -112 q 1303 -235 1343 -196 q 1144 -282 1252 -282 q 841 -1 841 -282 l 841 635 q 734 732 841 732 q 630 635 630 732 l 631 -30 l 486 -30 l 486 635 q 384 732 486 732 q 281 635 281 732 l 281 -30 l 136 -30 l 136 633 q 53 732 136 732 q 3 713 24 732 q 141 785 39 785 q 281 693 265 785 l 295 693 q 466 785 319 785 q 630 693 616 785 l 646 693 q 812 785 666 785 q 987 635 987 785 l 987 -1 q 1036 -173 987 -108 q 1160 -237 1085 -237 q 1319 -136 1319 -237 q 1301 -75 1319 -108 l 1235 -106 l 1235 115 l 1389 -33 z "},"i":{"ha":997,"x_min":7,"x_max":1002,"o":"m 1002 806 l 895 538 l 895 658 l 427 105 q 513 -54 496 12 l 456 -80 q 379 50 437 -15 l 102 -279 l 7 -173 l 305 128 q 176 215 252 184 l 202 276 q 348 177 280 246 l 864 689 l 743 689 l 1002 806 z "},"j":{"ha":1080,"x_min":9,"x_max":1092,"o":"m 1092 795 q 464 289 645 510 q 635 324 555 324 q 876 243 782 324 q 973 18 973 158 q 860 -198 973 -114 q 598 -277 752 -277 q 216 47 217 -277 q 232 151 216 103 q 124 65 177 119 q 39 -71 60 -2 q 117 117 46 26 q 253 230 178 195 q 416 425 287 318 q 656 587 522 514 q 532 562 597 562 q 247 669 357 562 q 9 577 178 577 q 232 795 159 626 q 555 659 387 659 q 827 705 656 659 q 1092 795 972 745 m 830 22 q 767 190 830 116 q 612 264 703 264 q 422 222 552 264 q 370 47 370 113 q 424 -140 370 -60 q 598 -237 486 -237 q 765 -169 700 -237 q 830 22 830 -101 z "},"k":{"ha":1194,"x_min":5,"x_max":1195,"o":"m 1195 490 q 1066 228 1178 228 q 948 314 996 228 q 767 634 878 433 q 715 679 743 679 q 665 634 684 679 l 515 298 q 422 227 482 227 q 330 292 364 227 q 163 634 296 357 q 118 674 144 674 q 34 562 82 674 q 80 726 45 661 q 163 791 115 791 q 285 665 228 791 q 421 393 360 498 q 464 340 451 340 q 501 393 479 340 q 646 716 551 500 q 752 800 682 800 q 869 716 823 800 q 1055 391 941 585 q 1106 347 1080 347 q 1195 490 1151 347 m 1168 11 q 1044 -271 1158 -271 q 924 -183 976 -271 q 741 135 854 -63 q 688 181 718 181 q 638 135 660 181 q 491 -198 586 15 q 397 -271 457 -271 q 305 -208 338 -271 q 136 135 302 -203 q 90 178 115 178 q 5 71 52 178 q 52 232 16 170 q 135 295 87 295 q 259 166 199 295 q 395 -105 338 -5 q 439 -158 424 -158 q 478 -105 455 -158 q 620 218 526 3 q 724 302 655 302 q 843 218 798 302 q 1029 -106 888 134 q 1084 -155 1058 -155 q 1168 11 1121 -155 z "},"l":{"ha":822,"x_min":2,"x_max":822,"o":"m 822 -278 q 596 -92 688 -237 q 495 235 504 54 q 409 240 462 240 q 330 235 380 240 q 230 -91 322 56 q 2 -278 138 -237 q 138 -58 99 -190 q 168 221 164 41 q 24 179 113 211 q 34 243 25 189 q 168 288 115 281 q 2 791 159 614 q 229 612 138 749 q 330 304 319 474 q 409 311 381 311 q 495 304 458 311 q 595 610 506 475 q 822 791 686 751 q 659 288 665 614 q 791 250 717 279 q 806 172 802 205 q 659 221 736 208 q 686 -50 661 49 q 822 -278 722 -189 z "},"m":{"ha":1036,"x_min":3,"x_max":1034,"o":"m 1034 243 q 884 -122 1034 29 q 519 -273 734 -273 q 153 -123 302 -273 q 3 243 3 27 q 155 607 3 457 q 519 756 307 756 q 883 607 732 756 q 1034 243 1034 457 m 760 450 q 424 680 610 680 q 221 566 302 680 l 550 240 l 760 450 m 878 70 q 789 410 878 237 l 583 210 l 854 -62 q 878 70 878 -4 m 499 190 l 185 506 q 170 404 170 457 q 296 -13 170 186 l 499 190 m 805 -120 l 534 158 l 323 -52 q 597 -208 454 -208 q 805 -120 727 -208 z "},"n":{"ha":1111,"x_min":1,"x_max":1105,"o":"m 1105 760 l 930 585 q 1023 292 1023 454 q 875 -70 1023 79 q 513 -220 726 -220 q 218 -127 352 -220 l 64 -280 l 14 -230 q 104 -140 64 -180 q 160 -81 126 -119 q 1 292 1 70 q 152 651 1 503 q 513 800 302 800 q 884 641 730 800 l 1059 814 l 1105 760 m 736 503 q 414 730 592 730 q 247 637 312 730 q 186 450 186 555 q 302 68 186 250 l 736 503 m 854 127 q 773 430 854 275 l 353 9 q 604 -138 473 -138 q 787 -63 719 -138 q 854 127 854 11 z "},"o":{"ha":1082,"x_min":5,"x_max":1086,"o":"m 597 264 q 583 229 597 243 q 547 215 568 215 q 511 230 526 215 q 497 267 497 245 q 512 301 497 287 q 548 315 526 315 q 583 301 568 315 q 597 264 597 286 m 776 170 q 682 399 776 277 q 483 524 584 526 q 375 479 422 522 q 328 372 328 433 q 418 142 328 260 q 609 22 513 22 q 722 60 673 22 q 776 170 776 104 m 565 -29 l 565 -241 q 904 -95 763 -234 q 1051 245 1044 45 l 846 245 q 760 58 839 136 q 565 -29 678 -24 m 847 278 l 1051 278 q 904 618 1044 477 q 565 766 763 759 l 565 565 q 760 479 678 560 q 847 278 844 395 m 530 565 l 530 766 q 189 619 330 760 q 41 278 48 478 l 251 278 q 338 479 254 395 q 530 565 418 559 m 252 245 l 41 245 q 189 -95 48 45 q 530 -241 330 -235 l 530 -29 q 338 58 418 -23 q 252 245 259 136 m 1086 262 q 928 -120 1086 38 q 547 -277 771 -277 q 163 -120 321 -277 q 5 262 5 38 q 163 644 5 486 q 547 802 321 802 q 928 644 771 802 q 1086 262 1086 486 z "},"p":{"ha":1082,"x_min":3,"x_max":1083,"o":"m 765 283 q 681 477 765 396 q 479 559 597 559 l 471 559 q 564 478 517 543 q 611 339 611 414 q 536 164 611 236 q 354 92 460 92 q 272 109 303 88 q 479 9 353 9 q 681 89 597 9 q 765 283 765 170 m 562 576 q 731 490 657 562 q 823 277 821 401 l 1048 277 q 901 616 1042 477 q 562 763 760 755 l 562 576 m 822 243 q 733 54 813 134 q 562 -35 661 -20 l 562 -244 q 901 -96 760 -237 q 1048 243 1042 45 l 822 243 m 527 -38 l 514 -38 q 343 14 420 -38 q 239 140 270 62 q 309 123 279 123 q 475 192 406 123 q 515 243 498 216 l 38 243 q 186 -98 45 43 q 527 -244 327 -239 l 527 -38 m 530 276 q 543 356 543 313 q 510 482 543 427 q 418 566 477 536 q 514 580 458 580 l 527 580 l 527 763 q 186 617 327 757 q 38 276 45 477 l 530 276 m 1083 260 q 926 -122 1083 36 q 544 -280 768 -280 q 160 -122 318 -280 q 3 260 3 36 q 160 641 3 484 q 544 799 318 799 q 926 641 768 799 q 1083 260 1083 484 z "},"q":{"ha":1082,"x_min":4,"x_max":1084,"o":"m 648 252 q 608 355 648 309 q 519 402 568 402 q 474 379 492 402 q 456 320 456 357 q 496 215 456 264 q 584 167 537 167 q 648 252 648 167 m 416 241 l 39 241 q 188 -99 47 41 q 528 -245 328 -239 l 528 -83 l 564 -83 l 564 -245 q 902 -99 762 -238 q 1050 241 1043 41 l 686 241 q 663 197 679 218 q 574 146 632 157 l 574 62 l 653 62 l 653 42 l 574 42 l 574 -30 l 528 -31 l 528 42 l 451 42 l 451 62 l 528 62 l 528 144 q 442 193 475 153 q 416 241 424 216 m 692 274 l 1050 274 q 902 614 1043 473 q 564 762 762 755 l 564 599 l 528 599 l 528 762 q 188 615 328 756 q 39 274 47 474 l 409 274 l 409 283 q 496 415 409 374 q 401 549 416 435 q 565 443 444 444 q 649 476 612 443 q 690 549 686 509 q 667 474 690 511 q 601 417 642 432 q 665 367 638 402 q 692 284 692 330 l 692 274 m 1084 258 q 927 -124 1084 34 q 545 -281 770 -281 q 162 -124 319 -281 q 4 258 4 34 q 162 640 4 481 q 545 798 319 798 q 927 640 770 798 q 1084 258 1084 481 z "},"r":{"ha":1082,"x_min":3,"x_max":1083,"o":"m 664 328 q 612 452 664 395 q 509 505 564 505 q 449 476 473 505 q 425 406 425 447 q 469 278 425 336 q 580 216 516 216 q 642 246 619 216 q 664 328 664 277 m 415 243 l 38 243 q 186 -98 45 42 q 527 -244 327 -238 l 527 -82 l 562 -82 l 562 -244 q 901 -97 760 -237 q 1048 243 1042 42 l 673 243 q 566 189 633 199 l 566 98 l 654 98 l 654 78 l 566 78 l 566 -17 l 513 -18 l 513 78 l 425 78 l 425 98 l 513 98 l 513 191 q 415 243 452 203 m 696 275 l 1048 275 q 901 615 1042 474 q 562 763 760 756 l 562 600 l 527 600 l 527 763 q 186 616 327 758 q 38 275 45 475 l 392 275 q 369 362 369 315 q 419 486 369 433 q 541 538 470 538 q 668 488 616 538 q 720 363 720 437 q 696 275 720 315 m 1083 259 q 926 -122 1083 35 q 544 -280 768 -280 q 160 -122 318 -280 q 3 259 3 35 q 160 641 3 483 q 544 799 318 799 q 926 641 768 799 q 1083 259 1083 483 z "},"s":{"ha":1082,"x_min":3,"x_max":1084,"o":"m 681 193 q 629 336 681 265 q 509 409 573 409 q 445 380 471 409 q 419 309 419 351 q 471 164 419 231 q 582 97 522 97 q 650 119 623 97 q 681 193 681 146 m 357 242 l 39 242 q 187 -98 46 42 q 528 -244 328 -238 l 528 -82 l 563 -82 l 563 -244 q 902 -97 761 -237 q 1049 242 1042 42 l 739 242 q 684 121 734 172 q 549 64 627 64 q 413 121 469 64 q 357 242 361 172 m 739 275 l 1049 275 q 902 615 1042 474 q 563 763 761 756 l 563 600 l 528 600 l 528 763 q 187 616 328 758 q 39 275 46 475 l 357 275 q 413 391 364 342 q 549 446 469 446 q 688 387 630 446 l 804 503 l 700 503 l 907 591 l 822 378 l 822 483 l 705 366 q 739 275 734 325 m 1084 259 q 926 -122 1084 35 q 545 -280 769 -280 q 161 -122 319 -280 q 3 259 3 35 q 161 641 3 483 q 545 799 319 799 q 926 641 769 799 q 1084 259 1084 483 z "},"t":{"ha":1082,"x_min":3,"x_max":1084,"o":"m 629 -5 l 574 -5 l 574 104 l 359 104 q 492 254 426 178 q 571 398 571 347 q 547 452 571 430 q 494 473 523 473 q 376 400 419 479 q 431 496 390 464 q 524 526 469 526 q 609 498 574 526 q 644 422 644 471 q 608 322 644 374 q 523 229 581 283 q 412 126 470 180 l 574 126 l 574 193 l 629 248 l 629 126 l 720 126 l 720 104 l 629 104 l 629 -5 m 1049 241 l 800 241 l 800 275 l 1049 275 q 902 614 1042 473 q 563 762 761 755 l 563 595 l 528 595 l 528 762 q 187 616 328 757 q 39 275 46 475 l 302 275 l 302 241 l 39 241 q 187 -99 46 41 q 528 -245 328 -239 l 528 -80 l 563 -80 l 563 -245 q 902 -98 761 -237 q 1049 241 1042 41 m 1084 258 q 926 -123 1084 35 q 545 -281 769 -281 q 161 -123 319 -281 q 3 258 3 35 q 161 640 3 482 q 545 798 319 798 q 926 640 769 798 q 1084 258 1084 482 z "},"u":{"ha":1082,"x_min":5,"x_max":1085,"o":"m 1085 259 q 928 -122 1085 35 q 546 -280 770 -280 q 162 -122 320 -280 q 5 259 5 35 q 162 641 5 483 q 546 799 320 799 q 928 641 770 799 q 1085 259 1085 483 m 1050 242 l 802 242 l 802 275 l 1050 275 q 903 615 1044 474 q 564 763 762 756 l 564 600 l 529 600 l 529 763 q 188 616 329 758 q 40 275 47 475 l 303 275 l 303 242 l 40 242 q 188 -98 47 42 q 529 -244 329 -238 l 529 -77 l 564 -77 l 564 -244 q 903 -97 762 -237 q 1050 242 1044 42 m 726 242 q 671 125 726 182 q 550 39 623 73 q 427 7 480 7 l 422 7 q 593 106 520 37 q 668 247 668 178 q 659 304 668 287 q 628 321 650 321 q 541 220 563 321 l 472 220 l 472 419 l 372 419 l 372 444 l 472 444 l 472 507 l 541 507 l 541 444 l 699 444 l 699 419 l 541 419 l 541 271 q 577 326 549 302 q 635 350 605 350 q 726 242 726 350 z "},"v":{"ha":817,"x_min":3,"x_max":793,"o":"m 793 499 q 690 202 793 332 q 433 46 587 72 l 433 -118 l 580 -118 l 580 -168 l 434 -168 l 434 -282 l 351 -282 l 351 -168 l 205 -168 l 205 -118 l 351 -118 l 351 33 q 3 165 117 24 q 178 130 71 130 q 534 278 388 130 q 680 634 680 426 q 642 882 680 768 q 793 499 793 726 z "},"w":{"ha":825,"x_min":0,"x_max":827,"o":"m 827 -69 l 760 -69 l 760 -283 l 665 -283 l 665 -69 l 551 -69 l 551 -283 l 450 -283 l 450 -69 l 0 -69 q 275 261 138 96 q 439 572 439 471 q 389 673 439 631 q 281 715 338 715 q 39 575 128 730 q 157 770 74 709 q 345 825 233 825 q 520 772 450 825 q 591 630 591 718 q 517 404 591 518 q 338 197 460 315 q 110 -25 229 95 l 450 -25 l 450 134 l 551 255 l 551 -25 l 665 -25 l 665 134 l 760 258 l 760 -25 l 827 -25 l 827 -69 z "},"x":{"ha":685,"x_min":0,"x_max":0,"o":""},"y":{"ha":362,"x_min":730,"x_max":1371,"o":"m 1371 78 q 1278 -75 1371 -15 q 1049 -135 1185 -135 q 824 -75 918 -135 q 730 78 730 -15 q 806 218 730 161 q 991 287 878 273 l 991 961 l 1107 961 l 1107 775 l 1278 948 l 1326 948 l 1145 768 l 1345 568 l 1262 568 l 1107 725 l 1107 287 q 1298 216 1224 273 q 1371 78 1371 159 m 1259 31 q 1173 178 1259 111 q 987 246 1088 246 q 884 211 925 246 q 842 125 842 176 q 924 -27 842 41 q 1112 -95 1006 -95 q 1216 -59 1173 -95 q 1259 31 1259 -24 z "},"z":{"ha":914,"x_min":1,"x_max":914,"o":"m 914 719 q 720 760 828 760 q 396 619 529 760 q 264 286 264 479 q 337 46 264 158 q 528 -121 410 -66 q 545 -125 529 -123 q 553 -133 553 -127 q 547 -133 551 -133 q 160 15 319 -133 q 1 390 1 163 q 154 759 1 606 q 523 911 307 911 q 914 719 753 911 z "},"{":{"ha":1036,"x_min":3,"x_max":1034,"o":"m 1034 243 q 884 -122 1034 29 q 519 -273 734 -273 q 153 -123 302 -273 q 3 243 3 27 q 155 607 3 457 q 519 756 307 756 q 883 607 732 756 q 1034 243 1034 457 m 760 450 q 424 680 610 680 q 221 566 302 680 l 550 240 l 760 450 m 878 70 q 789 410 878 237 l 583 210 l 854 -62 q 878 70 878 -4 m 499 190 l 185 506 q 170 404 170 457 q 296 -13 170 186 l 499 190 m 805 -120 l 534 158 l 323 -52 q 597 -208 454 -208 q 805 -120 727 -208 z "},"|":{"ha":1111,"x_min":1,"x_max":1105,"o":"m 1105 760 l 930 585 q 1023 292 1023 454 q 875 -70 1023 79 q 513 -220 726 -220 q 218 -127 352 -220 l 64 -280 l 14 -230 q 104 -140 64 -180 q 160 -81 126 -119 q 1 292 1 70 q 152 651 1 503 q 513 800 302 800 q 884 641 730 800 l 1059 814 l 1105 760 m 736 503 q 414 730 592 730 q 247 637 312 730 q 186 450 186 555 q 302 68 186 250 l 736 503 m 854 127 q 773 430 854 275 l 353 9 q 604 -138 473 -138 q 787 -63 719 -138 q 854 127 854 11 z "},"}":{"ha":1082,"x_min":5,"x_max":1086,"o":"m 597 264 q 583 229 597 243 q 547 215 568 215 q 511 230 526 215 q 497 267 497 245 q 512 301 497 287 q 548 315 526 315 q 583 301 568 315 q 597 264 597 286 m 776 170 q 682 399 776 277 q 483 524 584 526 q 375 479 422 522 q 328 372 328 433 q 418 142 328 260 q 609 22 513 22 q 722 60 673 22 q 776 170 776 104 m 565 -29 l 565 -241 q 904 -95 763 -234 q 1051 245 1044 45 l 846 245 q 760 58 839 136 q 565 -29 678 -24 m 847 278 l 1051 278 q 904 618 1044 477 q 565 766 763 759 l 565 565 q 760 479 678 560 q 847 278 844 395 m 530 565 l 530 766 q 189 619 330 760 q 41 278 48 478 l 251 278 q 338 479 254 395 q 530 565 418 559 m 252 245 l 41 245 q 189 -95 48 45 q 530 -241 330 -235 l 530 -29 q 338 58 418 -23 q 252 245 259 136 m 1086 262 q 928 -120 1086 38 q 547 -277 771 -277 q 163 -120 321 -277 q 5 262 5 38 q 163 644 5 486 q 547 802 321 802 q 928 644 771 802 q 1086 262 1086 486 z "},"~":{"ha":1082,"x_min":3,"x_max":1083,"o":"m 765 283 q 681 477 765 396 q 479 559 597 559 l 471 559 q 564 478 517 543 q 611 339 611 414 q 536 164 611 236 q 354 92 460 92 q 272 109 303 88 q 479 9 353 9 q 681 89 597 9 q 765 283 765 170 m 562 576 q 731 490 657 562 q 823 277 821 401 l 1048 277 q 901 616 1042 477 q 562 763 760 755 l 562 576 m 822 243 q 733 54 813 134 q 562 -35 661 -20 l 562 -244 q 901 -96 760 -237 q 1048 243 1042 45 l 822 243 m 527 -38 l 514 -38 q 343 14 420 -38 q 239 140 270 62 q 309 123 279 123 q 475 192 406 123 q 515 243 498 216 l 38 243 q 186 -98 45 43 q 527 -244 327 -239 l 527 -38 m 530 276 q 543 356 543 313 q 510 482 543 427 q 418 566 477 536 q 514 580 458 580 l 527 580 l 527 763 q 186 617 327 757 q 38 276 45 477 l 530 276 m 1083 260 q 926 -122 1083 36 q 544 -280 768 -280 q 160 -122 318 -280 q 3 260 3 36 q 160 641 3 484 q 544 799 318 799 q 926 641 768 799 q 1083 260 1083 484 z "},"¡":{"ha":1082,"x_min":4,"x_max":1084,"o":"m 648 252 q 608 355 648 309 q 519 402 568 402 q 474 379 492 402 q 456 320 456 357 q 496 215 456 264 q 584 167 537 167 q 648 252 648 167 m 416 241 l 39 241 q 188 -99 47 41 q 528 -245 328 -239 l 528 -83 l 564 -83 l 564 -245 q 902 -99 762 -238 q 1050 241 1043 41 l 686 241 q 663 197 679 218 q 574 146 632 157 l 574 62 l 653 62 l 653 42 l 574 42 l 574 -30 l 528 -31 l 528 42 l 451 42 l 451 62 l 528 62 l 528 144 q 442 193 475 153 q 416 241 424 216 m 692 274 l 1050 274 q 902 614 1043 473 q 564 762 762 755 l 564 599 l 528 599 l 528 762 q 188 615 328 756 q 39 274 47 474 l 409 274 l 409 283 q 496 415 409 374 q 401 549 416 435 q 565 443 444 444 q 649 476 612 443 q 690 549 686 509 q 667 474 690 511 q 601 417 642 432 q 665 367 638 402 q 692 284 692 330 l 692 274 m 1084 258 q 927 -124 1084 34 q 545 -281 770 -281 q 162 -124 319 -281 q 4 258 4 34 q 162 640 4 481 q 545 798 319 798 q 927 640 770 798 q 1084 258 1084 481 z "},"¢":{"ha":1082,"x_min":3,"x_max":1083,"o":"m 664 328 q 612 452 664 395 q 509 505 564 505 q 449 476 473 505 q 425 406 425 447 q 469 278 425 336 q 580 216 516 216 q 642 246 619 216 q 664 328 664 277 m 415 243 l 38 243 q 186 -98 45 42 q 527 -244 327 -238 l 527 -82 l 562 -82 l 562 -244 q 901 -97 760 -237 q 1048 243 1042 42 l 673 243 q 566 189 633 199 l 566 98 l 654 98 l 654 78 l 566 78 l 566 -17 l 513 -18 l 513 78 l 425 78 l 425 98 l 513 98 l 513 191 q 415 243 452 203 m 696 275 l 1048 275 q 901 615 1042 474 q 562 763 760 756 l 562 600 l 527 600 l 527 763 q 186 616 327 758 q 38 275 45 475 l 392 275 q 369 362 369 315 q 419 486 369 433 q 541 538 470 538 q 668 488 616 538 q 720 363 720 437 q 696 275 720 315 m 1083 259 q 926 -122 1083 35 q 544 -280 768 -280 q 160 -122 318 -280 q 3 259 3 35 q 160 641 3 483 q 544 799 318 799 q 926 641 768 799 q 1083 259 1083 483 z "},"£":{"ha":1082,"x_min":3,"x_max":1084,"o":"m 681 193 q 629 336 681 265 q 509 409 573 409 q 445 380 471 409 q 419 309 419 351 q 471 164 419 231 q 582 97 522 97 q 650 119 623 97 q 681 193 681 146 m 357 242 l 39 242 q 187 -98 46 42 q 528 -244 328 -238 l 528 -82 l 563 -82 l 563 -244 q 902 -97 761 -237 q 1049 242 1042 42 l 739 242 q 684 121 734 172 q 549 64 627 64 q 413 121 469 64 q 357 242 361 172 m 739 275 l 1049 275 q 902 615 1042 474 q 563 763 761 756 l 563 600 l 528 600 l 528 763 q 187 616 328 758 q 39 275 46 475 l 357 275 q 413 391 364 342 q 549 446 469 446 q 688 387 630 446 l 804 503 l 700 503 l 907 591 l 822 378 l 822 483 l 705 366 q 739 275 734 325 m 1084 259 q 926 -122 1084 35 q 545 -280 769 -280 q 161 -122 319 -280 q 3 259 3 35 q 161 641 3 483 q 545 799 319 799 q 926 641 769 799 q 1084 259 1084 483 z "},"¤":{"ha":1082,"x_min":3,"x_max":1084,"o":"m 629 -5 l 574 -5 l 574 104 l 359 104 q 492 254 426 178 q 571 398 571 347 q 547 452 571 430 q 494 473 523 473 q 376 400 419 479 q 431 496 390 464 q 524 526 469 526 q 609 498 574 526 q 644 422 644 471 q 608 322 644 374 q 523 229 581 283 q 412 126 470 180 l 574 126 l 574 193 l 629 248 l 629 126 l 720 126 l 720 104 l 629 104 l 629 -5 m 1049 241 l 800 241 l 800 275 l 1049 275 q 902 614 1042 473 q 563 762 761 755 l 563 595 l 528 595 l 528 762 q 187 616 328 757 q 39 275 46 475 l 302 275 l 302 241 l 39 241 q 187 -99 46 41 q 528 -245 328 -239 l 528 -80 l 563 -80 l 563 -245 q 902 -98 761 -237 q 1049 241 1042 41 m 1084 258 q 926 -123 1084 35 q 545 -281 769 -281 q 161 -123 319 -281 q 3 258 3 35 q 161 640 3 482 q 545 798 319 798 q 926 640 769 798 q 1084 258 1084 482 z "},"¥":{"ha":1082,"x_min":5,"x_max":1085,"o":"m 1085 259 q 928 -122 1085 35 q 546 -280 770 -280 q 162 -122 320 -280 q 5 259 5 35 q 162 641 5 483 q 546 799 320 799 q 928 641 770 799 q 1085 259 1085 483 m 1050 242 l 802 242 l 802 275 l 1050 275 q 903 615 1044 474 q 564 763 762 756 l 564 600 l 529 600 l 529 763 q 188 616 329 758 q 40 275 47 475 l 303 275 l 303 242 l 40 242 q 188 -98 47 42 q 529 -244 329 -238 l 529 -77 l 564 -77 l 564 -244 q 903 -97 762 -237 q 1050 242 1044 42 m 726 242 q 671 125 726 182 q 550 39 623 73 q 427 7 480 7 l 422 7 q 593 106 520 37 q 668 247 668 178 q 659 304 668 287 q 628 321 650 321 q 541 220 563 321 l 472 220 l 472 419 l 372 419 l 372 444 l 472 444 l 472 507 l 541 507 l 541 444 l 699 444 l 699 419 l 541 419 l 541 271 q 577 326 549 302 q 635 350 605 350 q 726 242 726 350 z "},"¦":{"ha":688,"x_min":290,"x_max":398,"o":"m 290 252 l 398 252 l 398 -283 l 290 -283 l 290 252 m 290 1070 l 398 1070 l 398 535 l 290 535 l 290 1070 z "},"§":{"ha":688,"x_min":115,"x_max":572,"o":"m 370 218 q 435 254 408 229 q 485 366 485 298 q 484 373 485 370 l 483 373 q 480 391 482 382 q 404 477 465 433 q 318 497 363 497 q 233 467 265 497 q 201 387 201 437 q 370 218 201 304 m 316 -235 q 441 -188 393 -231 q 490 -76 490 -144 q 276 111 490 9 q 157 204 193 155 q 121 324 121 254 q 182 485 121 425 q 297 541 227 529 l 270 553 q 151 646 186 597 q 115 766 115 696 q 176 927 115 867 q 322 985 231 981 q 334 986 328 986 l 336 986 q 446 975 380 986 q 512 947 512 964 l 512 815 l 477 815 q 423 905 474 870 q 322 939 376 937 l 312 939 q 227 909 259 939 q 195 829 195 879 q 390 647 195 740 q 529 550 491 602 q 566 422 566 498 q 498 231 566 307 q 431 188 466 205 q 535 108 504 150 q 572 -19 572 56 q 504 -211 572 -135 q 316 -282 420 -280 l 316 -281 q 307 -282 312 -282 l 305 -282 q 195 -271 260 -282 q 129 -243 129 -260 l 129 -111 l 163 -111 q 218 -201 167 -166 q 316 -235 264 -231 z "},"¨":{"ha":694,"x_min":142,"x_max":536,"o":"m 151 874 l 199 923 q 216 931 208 931 q 235 922 224 931 l 281 872 q 288 855 288 863 q 280 837 288 846 l 233 786 q 216 774 222 774 q 199 783 207 774 l 148 841 q 142 857 142 849 q 151 874 142 865 m 399 874 l 447 923 q 464 931 456 931 q 482 922 471 931 l 529 872 q 536 855 536 863 q 528 838 536 846 l 481 786 q 464 774 469 774 q 447 783 454 774 l 395 842 q 389 857 389 849 q 399 874 389 865 z "},"©":{"ha":1135,"x_min":68,"x_max":1067,"o":"m 570 987 q 760 949 668 987 q 922 840 851 911 q 1029 679 991 772 q 1067 487 1067 586 q 1029 296 1067 387 q 919 133 991 204 q 757 25 848 62 q 565 -12 666 -12 q 376 25 466 -12 q 215 134 287 63 q 105 295 143 205 q 68 487 68 386 q 105 679 68 587 q 214 840 143 770 q 375 949 283 911 q 570 987 468 987 m 242 812 q 143 663 178 747 q 109 487 109 579 q 143 311 109 394 q 243 163 178 229 q 392 63 310 98 q 566 28 474 28 q 742 63 659 28 q 890 161 825 97 q 991 312 956 228 q 1027 487 1027 395 q 991 663 1027 578 q 893 812 956 748 q 744 912 828 877 q 569 947 660 947 q 391 912 476 947 q 242 812 307 877 m 587 151 q 408 197 490 151 q 281 323 325 243 q 238 488 238 402 q 282 653 238 573 q 410 778 327 733 q 582 823 492 823 q 633 819 608 823 q 684 805 658 814 q 690 804 688 804 q 708 825 703 804 l 736 825 l 785 690 l 755 690 q 667 774 720 754 q 567 792 618 792 l 557 792 q 444 744 498 787 q 361 624 389 701 q 339 499 339 563 q 340 465 339 482 q 388 313 348 383 q 489 210 427 243 q 602 182 538 183 q 733 220 686 182 q 781 305 781 258 l 817 305 l 817 237 q 751 179 817 206 q 587 151 686 151 z "},"ª":{"ha":439,"x_min":0,"x_max":0,"o":""},"«":{"ha":640,"x_min":118,"x_max":572,"o":"m 118 325 l 350 530 l 359 530 l 359 505 l 220 325 l 359 144 l 359 119 l 350 119 l 118 325 m 330 325 l 562 530 l 572 530 l 572 505 l 433 325 l 572 144 l 572 119 l 562 119 l 330 325 z "},"¬":{"ha":688,"x_min":59,"x_max":629,"o":"m 59 520 l 629 520 l 629 187 l 628 186 l 562 186 l 562 452 l 59 452 l 59 520 z "},"®":{"ha":1135,"x_min":68,"x_max":1067,"o":"m 509 745 l 509 492 l 511 486 q 549 431 527 448 q 587 416 569 416 l 591 416 q 633 443 612 419 q 665 509 654 466 q 673 578 673 543 q 673 597 673 587 q 654 681 670 642 q 615 733 637 720 q 572 745 593 745 l 509 745 m 667 391 l 723 312 q 825 216 791 216 l 848 216 l 848 182 l 613 182 l 613 216 l 644 216 q 664 231 664 216 q 617 309 664 251 l 566 378 q 509 406 538 378 l 509 298 q 534 216 509 216 l 570 216 l 570 182 l 355 182 l 355 216 l 385 216 q 410 298 410 216 l 410 663 q 385 745 410 745 l 355 745 l 355 793 l 597 793 q 682 764 640 792 q 744 687 722 736 q 766 584 766 637 q 745 482 766 531 q 667 391 723 433 m 570 987 q 760 949 668 987 q 922 840 851 911 q 1029 679 991 772 q 1067 487 1067 586 q 1029 296 1067 387 q 919 133 991 204 q 757 25 848 62 q 565 -12 666 -12 q 376 25 466 -12 q 215 134 287 63 q 105 295 143 205 q 68 487 68 386 q 105 679 68 587 q 214 840 143 770 q 375 949 283 911 q 570 987 468 987 m 242 812 q 143 663 178 747 q 109 487 109 579 q 143 311 109 394 q 243 163 178 229 q 392 63 310 98 q 566 28 474 28 q 742 63 659 28 q 890 161 825 97 q 991 312 956 228 q 1027 487 1027 395 q 991 663 1027 578 q 893 812 956 748 q 744 912 828 877 q 569 947 660 947 q 391 912 476 947 q 242 812 307 877 z "},"¯":{"ha":454,"x_min":0,"x_max":0,"o":""},"°":{"ha":457,"x_min":41,"x_max":418,"o":"m 230 930 q 130 889 172 930 q 88 789 88 848 q 130 689 88 730 q 230 648 171 648 q 330 689 289 648 q 370 789 370 730 q 329 889 370 848 q 230 930 288 930 m 230 978 q 363 923 308 978 q 418 789 418 867 q 362 656 418 712 q 229 601 307 601 q 95 656 149 601 q 41 789 41 711 q 96 923 41 868 q 230 978 151 978 z "},"±":{"ha":1082,"x_min":1,"x_max":1082,"o":"m 1082 407 q 924 25 1082 183 q 543 -132 767 -132 q 159 25 317 -132 q 1 407 1 183 q 159 789 1 631 q 543 947 317 947 q 924 789 767 947 q 1082 407 1082 631 m 1047 390 l 798 390 l 798 423 l 1047 423 q 900 763 1040 622 q 561 911 759 904 l 561 680 l 526 680 l 526 911 q 185 764 326 905 q 37 423 44 623 l 300 423 l 300 390 l 37 390 q 185 50 44 190 q 526 -96 326 -90 l 526 146 l 561 146 l 561 -96 q 900 51 759 -89 q 1047 390 1040 190 z "},"²":{"ha":1084,"x_min":41,"x_max":1042,"o":"m 1042 485 q 897 131 1042 277 q 543 -15 751 -15 q 188 131 334 -15 q 41 485 41 277 q 188 838 41 692 q 543 985 334 985 q 897 838 751 985 q 1042 485 1042 692 m 1010 469 l 702 469 l 702 500 l 1010 500 q 873 814 1004 684 q 559 951 743 945 l 559 870 l 527 870 l 527 951 q 211 816 342 947 q 74 500 81 685 l 384 500 l 384 469 l 74 469 q 211 154 81 283 q 527 18 342 24 l 527 100 l 559 100 l 559 18 q 873 154 743 25 q 1010 469 1004 283 m 718 179 l 367 179 l 367 248 l 503 248 l 503 713 l 355 685 l 355 761 l 501 789 l 584 789 l 584 248 l 718 248 l 718 179 z "},"³":{"ha":1084,"x_min":41,"x_max":1042,"o":"m 1042 485 q 897 131 1042 277 q 543 -15 751 -15 q 188 131 334 -15 q 41 485 41 277 q 188 838 41 692 q 543 985 334 985 q 897 838 751 985 q 1042 485 1042 692 m 1010 469 l 780 469 l 780 500 l 1010 500 q 873 814 1004 684 q 559 951 743 945 l 559 859 l 527 859 l 527 951 q 211 816 342 947 q 74 500 81 685 l 428 500 l 428 469 l 74 469 q 211 154 81 283 q 527 18 342 24 l 527 122 l 559 122 l 559 18 q 873 154 743 25 q 1010 469 1004 283 m 747 182 l 359 182 l 359 252 q 590 488 437 330 q 662 626 662 569 q 626 707 662 677 q 537 736 590 736 q 363 681 460 736 l 363 765 q 535 806 463 806 q 682 764 625 806 q 744 631 744 716 q 679 479 744 559 q 570 363 642 436 q 458 252 513 308 l 747 252 l 747 182 z "},"´":{"ha":1084,"x_min":41,"x_max":1042,"o":"m 1042 485 q 897 131 1042 277 q 543 -15 751 -15 q 188 131 334 -15 q 41 485 41 277 q 188 838 41 692 q 543 985 334 985 q 897 838 751 985 q 1042 485 1042 692 m 1010 469 l 813 469 l 813 500 l 1010 500 q 873 814 1004 684 q 559 951 743 945 l 559 859 l 527 859 l 527 951 q 211 816 342 947 q 74 500 81 685 l 296 500 l 296 469 l 74 469 q 211 154 81 283 q 527 18 342 24 l 527 100 l 559 100 l 559 18 q 873 154 743 25 q 1010 469 1004 283 m 758 346 q 685 197 758 246 q 519 155 623 155 q 355 186 441 155 l 355 266 q 515 225 425 225 q 675 346 675 225 q 631 435 675 404 q 532 461 594 461 l 460 461 l 460 530 l 535 530 q 662 625 662 530 q 532 722 662 722 q 372 692 465 722 l 372 765 q 540 791 468 791 q 679 755 625 791 q 743 632 743 713 q 631 498 743 526 q 758 346 758 471 z "},"µ":{"ha":1084,"x_min":41,"x_max":1042,"o":"m 1042 485 q 897 131 1042 277 q 543 -15 751 -15 q 188 131 334 -15 q 41 485 41 277 q 188 838 41 692 q 543 985 334 985 q 897 838 751 985 q 1042 485 1042 692 m 1010 469 l 802 469 l 802 500 l 1010 500 q 873 814 1004 684 q 559 951 743 945 l 559 859 l 527 859 l 527 951 q 211 816 342 947 q 74 500 81 685 l 218 500 l 218 469 l 74 469 q 211 154 81 283 q 527 18 342 24 l 527 111 l 559 111 l 559 18 q 873 154 743 25 q 1010 469 1004 283 m 728 318 l 640 318 l 640 173 l 557 173 l 557 318 l 279 318 l 279 398 l 534 786 l 640 786 l 640 387 l 728 387 l 728 318 m 534 387 l 534 713 l 326 387 l 534 387 z "},"¶":{"ha":1084,"x_min":41,"x_max":1042,"o":"m 1042 485 q 897 131 1042 277 q 543 -15 751 -15 q 188 131 334 -15 q 41 485 41 277 q 188 838 41 692 q 543 985 334 985 q 897 838 751 985 q 1042 485 1042 692 m 1010 469 l 835 469 l 835 500 l 1010 500 q 873 814 1004 684 q 559 951 743 945 l 559 848 l 527 848 l 527 951 q 211 816 342 947 q 74 500 81 685 l 273 500 l 273 469 l 74 469 q 211 154 81 283 q 527 18 342 24 l 527 111 l 559 111 l 559 18 q 873 154 743 25 q 1010 469 1004 283 m 763 372 q 696 213 763 269 q 529 163 635 163 q 367 190 453 163 l 367 273 q 527 233 439 233 q 638 269 595 233 q 681 372 681 304 q 636 476 681 439 q 527 510 595 510 q 393 481 460 510 l 393 787 l 718 787 l 718 718 l 469 718 l 469 568 q 541 580 505 580 q 701 528 642 580 q 763 372 763 471 z "},"·":{"ha":345,"x_min":87,"x_max":257,"o":"m 98 502 l 154 559 q 174 568 164 568 q 195 557 182 568 l 249 499 q 257 479 257 488 q 248 458 257 469 l 193 399 q 174 385 180 385 q 154 395 163 385 l 94 463 q 87 481 87 472 q 98 502 87 491 z "},"¸":{"ha":694,"x_min":244,"x_max":521,"o":"m 244 -197 q 347 -232 302 -232 q 411 -217 392 -232 q 431 -172 431 -203 q 397 -129 431 -142 q 328 -118 370 -118 q 305 -119 317 -118 l 338 0 l 380 0 l 355 -71 q 397 -67 377 -68 q 488 -95 456 -67 q 521 -172 521 -122 q 481 -253 521 -223 q 372 -283 441 -283 q 244 -262 298 -283 l 244 -197 z "},"¹":{"ha":688,"x_min":0,"x_max":0,"o":""},"º":{"ha":487,"x_min":0,"x_max":0,"o":""},"»":{"ha":640,"x_min":68,"x_max":522,"o":"m 78 119 l 68 119 l 68 144 l 208 325 l 68 505 l 68 530 l 78 530 l 310 325 l 78 119 m 290 119 l 281 119 l 281 144 l 420 325 l 281 505 l 281 530 l 290 530 l 522 325 l 290 119 z "},"¼":{"ha":1082,"x_min":5,"x_max":1086,"o":"m 597 264 q 583 229 597 243 q 547 215 568 215 q 511 230 526 215 q 497 267 497 245 q 512 301 497 287 q 548 315 526 315 q 583 301 568 315 q 597 264 597 286 m 776 170 q 682 399 776 277 q 483 524 584 526 q 375 479 422 522 q 328 372 328 433 q 418 142 328 260 q 609 22 513 22 q 722 60 673 22 q 776 170 776 104 m 565 -29 l 565 -241 q 904 -95 763 -234 q 1051 245 1044 45 l 846 245 q 760 58 839 136 q 565 -29 678 -24 m 847 278 l 1051 278 q 904 618 1044 477 q 565 766 763 759 l 565 565 q 760 479 678 560 q 847 278 844 395 m 530 565 l 530 766 q 189 619 330 760 q 41 278 48 478 l 251 278 q 338 479 254 395 q 530 565 418 559 m 252 245 l 41 245 q 189 -95 48 45 q 530 -241 330 -235 l 530 -29 q 338 58 418 -23 q 252 245 259 136 m 1086 262 q 928 -120 1086 38 q 547 -277 771 -277 q 163 -120 321 -277 q 5 262 5 38 q 163 644 5 486 q 547 802 321 802 q 928 644 771 802 q 1086 262 1086 486 z "},"½":{"ha":1082,"x_min":3,"x_max":1083,"o":"m 765 283 q 681 477 765 396 q 479 559 597 559 l 471 559 q 564 478 517 543 q 611 339 611 414 q 536 164 611 236 q 354 92 460 92 q 272 109 303 88 q 479 9 353 9 q 681 89 597 9 q 765 283 765 170 m 562 576 q 731 490 657 562 q 823 277 821 401 l 1048 277 q 901 616 1042 477 q 562 763 760 755 l 562 576 m 822 243 q 733 54 813 134 q 562 -35 661 -20 l 562 -244 q 901 -96 760 -237 q 1048 243 1042 45 l 822 243 m 527 -38 l 514 -38 q 343 14 420 -38 q 239 140 270 62 q 309 123 279 123 q 475 192 406 123 q 515 243 498 216 l 38 243 q 186 -98 45 43 q 527 -244 327 -239 l 527 -38 m 530 276 q 543 356 543 313 q 510 482 543 427 q 418 566 477 536 q 514 580 458 580 l 527 580 l 527 763 q 186 617 327 757 q 38 276 45 477 l 530 276 m 1083 260 q 926 -122 1083 36 q 544 -280 768 -280 q 160 -122 318 -280 q 3 260 3 36 q 160 641 3 484 q 544 799 318 799 q 926 641 768 799 q 1083 260 1083 484 z "},"¾":{"ha":1082,"x_min":4,"x_max":1084,"o":"m 648 252 q 608 355 648 309 q 519 402 568 402 q 474 379 492 402 q 456 320 456 357 q 496 215 456 264 q 584 167 537 167 q 648 252 648 167 m 416 241 l 39 241 q 188 -99 47 41 q 528 -245 328 -239 l 528 -83 l 564 -83 l 564 -245 q 902 -99 762 -238 q 1050 241 1043 41 l 686 241 q 663 197 679 218 q 574 146 632 157 l 574 62 l 653 62 l 653 42 l 574 42 l 574 -30 l 528 -31 l 528 42 l 451 42 l 451 62 l 528 62 l 528 144 q 442 193 475 153 q 416 241 424 216 m 692 274 l 1050 274 q 902 614 1043 473 q 564 762 762 755 l 564 599 l 528 599 l 528 762 q 188 615 328 756 q 39 274 47 474 l 409 274 l 409 283 q 496 415 409 374 q 401 549 416 435 q 565 443 444 444 q 649 476 612 443 q 690 549 686 509 q 667 474 690 511 q 601 417 642 432 q 665 367 638 402 q 692 284 692 330 l 692 274 m 1084 258 q 927 -124 1084 34 q 545 -281 770 -281 q 162 -124 319 -281 q 4 258 4 34 q 162 640 4 481 q 545 798 319 798 q 927 640 770 798 q 1084 258 1084 481 z "},"¿":{"ha":1082,"x_min":3,"x_max":1083,"o":"m 664 328 q 612 452 664 395 q 509 505 564 505 q 449 476 473 505 q 425 406 425 447 q 469 278 425 336 q 580 216 516 216 q 642 246 619 216 q 664 328 664 277 m 415 243 l 38 243 q 186 -98 45 42 q 527 -244 327 -238 l 527 -82 l 562 -82 l 562 -244 q 901 -97 760 -237 q 1048 243 1042 42 l 673 243 q 566 189 633 199 l 566 98 l 654 98 l 654 78 l 566 78 l 566 -17 l 513 -18 l 513 78 l 425 78 l 425 98 l 513 98 l 513 191 q 415 243 452 203 m 696 275 l 1048 275 q 901 615 1042 474 q 562 763 760 756 l 562 600 l 527 600 l 527 763 q 186 616 327 758 q 38 275 45 475 l 392 275 q 369 362 369 315 q 419 486 369 433 q 541 538 470 538 q 668 488 616 538 q 720 363 720 437 q 696 275 720 315 m 1083 259 q 926 -122 1083 35 q 544 -280 768 -280 q 160 -122 318 -280 q 3 259 3 35 q 160 641 3 483 q 544 799 318 799 q 926 641 768 799 q 1083 259 1083 483 z "},"À":{"ha":1082,"x_min":3,"x_max":1084,"o":"m 681 193 q 629 336 681 265 q 509 409 573 409 q 445 380 471 409 q 419 309 419 351 q 471 164 419 231 q 582 97 522 97 q 650 119 623 97 q 681 193 681 146 m 357 242 l 39 242 q 187 -98 46 42 q 528 -244 328 -238 l 528 -82 l 563 -82 l 563 -244 q 902 -97 761 -237 q 1049 242 1042 42 l 739 242 q 684 121 734 172 q 549 64 627 64 q 413 121 469 64 q 357 242 361 172 m 739 275 l 1049 275 q 902 615 1042 474 q 563 763 761 756 l 563 600 l 528 600 l 528 763 q 187 616 328 758 q 39 275 46 475 l 357 275 q 413 391 364 342 q 549 446 469 446 q 688 387 630 446 l 804 503 l 700 503 l 907 591 l 822 378 l 822 483 l 705 366 q 739 275 734 325 m 1084 259 q 926 -122 1084 35 q 545 -280 769 -280 q 161 -122 319 -280 q 3 259 3 35 q 161 641 3 483 q 545 799 319 799 q 926 641 769 799 q 1084 259 1084 483 z "},"Á":{"ha":1082,"x_min":3,"x_max":1084,"o":"m 629 -5 l 574 -5 l 574 104 l 359 104 q 492 254 426 178 q 571 398 571 347 q 547 452 571 430 q 494 473 523 473 q 376 400 419 479 q 431 496 390 464 q 524 526 469 526 q 609 498 574 526 q 644 422 644 471 q 608 322 644 374 q 523 229 581 283 q 412 126 470 180 l 574 126 l 574 193 l 629 248 l 629 126 l 720 126 l 720 104 l 629 104 l 629 -5 m 1049 241 l 800 241 l 800 275 l 1049 275 q 902 614 1042 473 q 563 762 761 755 l 563 595 l 528 595 l 528 762 q 187 616 328 757 q 39 275 46 475 l 302 275 l 302 241 l 39 241 q 187 -99 46 41 q 528 -245 328 -239 l 528 -80 l 563 -80 l 563 -245 q 902 -98 761 -237 q 1049 241 1042 41 m 1084 258 q 926 -123 1084 35 q 545 -281 769 -281 q 161 -123 319 -281 q 3 258 3 35 q 161 640 3 482 q 545 798 319 798 q 926 640 769 798 q 1084 258 1084 482 z "},"Â":{"ha":1082,"x_min":5,"x_max":1085,"o":"m 1085 259 q 928 -122 1085 35 q 546 -280 770 -280 q 162 -122 320 -280 q 5 259 5 35 q 162 641 5 483 q 546 799 320 799 q 928 641 770 799 q 1085 259 1085 483 m 1050 242 l 802 242 l 802 275 l 1050 275 q 903 615 1044 474 q 564 763 762 756 l 564 600 l 529 600 l 529 763 q 188 616 329 758 q 40 275 47 475 l 303 275 l 303 242 l 40 242 q 188 -98 47 42 q 529 -244 329 -238 l 529 -77 l 564 -77 l 564 -244 q 903 -97 762 -237 q 1050 242 1044 42 m 726 242 q 671 125 726 182 q 550 39 623 73 q 427 7 480 7 l 422 7 q 593 106 520 37 q 668 247 668 178 q 659 304 668 287 q 628 321 650 321 q 541 220 563 321 l 472 220 l 472 419 l 372 419 l 372 444 l 472 444 l 472 507 l 541 507 l 541 444 l 699 444 l 699 419 l 541 419 l 541 271 q 577 326 549 302 q 635 350 605 350 q 726 242 726 350 z "},"Ã":{"ha":1044,"x_min":0,"x_max":0,"o":""},"Ä":{"ha":1044,"x_min":0,"x_max":0,"o":""},"Å":{"ha":1055,"x_min":23,"x_max":1031,"o":"m 23 488 q 41 353 23 418 q 92 233 59 289 q 171 131 125 177 q 273 52 216 85 q 393 1 329 19 q 528 -17 458 -17 q 662 1 597 -17 q 782 52 726 19 q 884 131 838 85 q 962 232 930 176 q 1013 353 995 288 q 1031 487 1031 417 q 1013 621 1031 557 q 962 742 995 686 q 884 844 930 798 q 782 924 838 890 q 662 975 726 957 q 528 993 597 993 q 393 975 458 993 q 273 924 329 957 q 171 845 216 891 q 92 743 125 799 q 41 622 59 686 q 23 488 23 557 m 43 488 q 57 606 43 549 q 98 714 72 663 q 192 728 149 728 q 460 616 349 728 q 572 349 572 505 q 518 144 572 233 q 391 22 471 66 q 252 89 316 44 q 141 194 188 133 q 69 330 95 255 q 43 488 43 405 m 889 460 q 760 148 889 278 q 436 15 631 18 q 622 164 550 62 q 694 387 694 267 q 579 666 694 551 q 301 781 464 781 q 118 743 203 781 q 450 897 257 897 q 761 769 632 897 q 889 460 889 640 z "},"Æ":{"ha":817,"x_min":1,"x_max":814,"o":"m 814 658 q 710 361 814 491 q 448 193 607 231 l 448 28 l 578 28 l 578 -21 l 450 -21 l 450 -136 l 332 -136 l 332 -21 l 203 -21 l 203 28 l 332 28 l 332 179 q 1 312 137 182 q 204 271 97 271 q 560 419 414 271 q 706 775 706 567 q 640 1028 706 909 q 814 658 814 885 z "},"Ç":{"ha":688,"x_min":48,"x_max":640,"o":"m 330 693 q 293 814 324 759 q 254 901 254 882 q 279 955 254 935 q 344 975 303 975 q 408 956 382 975 q 433 907 433 937 q 396 814 433 886 q 359 693 365 757 q 479 730 424 699 q 566 768 547 768 q 620 744 600 768 q 640 679 640 720 q 622 615 640 640 q 572 589 603 589 q 480 627 551 589 q 359 665 422 658 q 433 477 364 546 q 357 -183 361 165 l 332 -183 q 254 477 328 165 q 330 665 323 546 q 209 628 264 659 q 121 589 140 589 q 68 614 88 589 q 48 679 48 638 q 67 743 48 718 q 115 768 85 768 q 208 730 137 768 q 330 693 266 699 z "},"È":{"ha":781,"x_min":0,"x_max":0,"o":""},"É":{"ha":781,"x_min":0,"x_max":0,"o":""},"Ê":{"ha":781,"x_min":0,"x_max":0,"o":""},"Ë":{"ha":781,"x_min":0,"x_max":0,"o":""},"Ì":{"ha":446,"x_min":0,"x_max":0,"o":""},"Í":{"ha":446,"x_min":0,"x_max":0,"o":""},"Î":{"ha":446,"x_min":0,"x_max":0,"o":""},"Ï":{"ha":446,"x_min":0,"x_max":0,"o":""},"Ð":{"ha":1029,"x_min":0,"x_max":0,"o":""},"Ñ":{"ha":1054,"x_min":0,"x_max":0,"o":""},"Ò":{"ha":1095,"x_min":0,"x_max":0,"o":""},"Ó":{"ha":1095,"x_min":0,"x_max":0,"o":""},"Ô":{"ha":1095,"x_min":0,"x_max":0,"o":""},"Õ":{"ha":1095,"x_min":0,"x_max":0,"o":""},"Ö":{"ha":1095,"x_min":0,"x_max":0,"o":""},"×":{"ha":688,"x_min":109,"x_max":578,"o":"m 344 419 l 176 252 l 109 319 l 277 486 l 109 654 l 176 721 l 344 553 l 512 721 l 578 654 l 411 486 l 578 319 l 511 252 l 344 419 z "},"Ø":{"ha":625,"x_min":36,"x_max":586,"o":"m 586 478 q 524 304 586 379 q 368 210 463 229 l 368 0 l 256 0 l 256 210 q 99 304 161 229 q 36 478 36 379 q 89 642 36 570 q 227 742 142 715 q 119 818 164 758 q 54 988 68 885 q 179 833 96 886 q 335 789 249 789 q 477 848 415 789 q 547 988 539 908 q 500 850 547 929 q 382 742 449 766 q 528 645 471 718 q 586 478 586 572 m 488 505 q 336 692 445 636 l 336 505 l 488 505 m 285 505 l 285 707 q 268 708 279 708 q 163 655 207 708 q 119 529 119 602 q 121 517 119 525 q 121 505 121 508 l 285 505 m 500 428 q 498 453 500 444 l 336 453 l 336 252 q 346 252 340 252 q 355 250 353 250 q 457 303 415 250 q 500 428 500 355 m 285 268 l 285 453 l 132 453 q 285 268 172 325 z "},"Ù":{"ha":825,"x_min":36,"x_max":779,"o":"m 779 192 l 736 192 l 736 0 l 633 0 l 633 192 l 545 192 l 545 0 l 440 0 l 440 192 l 36 192 q 283 489 160 340 q 431 768 431 677 q 386 860 431 822 q 289 897 340 897 q 71 771 142 897 q 168 933 93 878 q 336 983 236 983 q 494 935 431 983 q 558 807 558 886 q 492 604 558 707 q 330 418 440 524 q 135 235 232 326 l 440 235 l 440 374 l 545 486 l 545 235 l 633 235 l 633 374 l 736 486 l 736 235 l 779 235 l 779 192 z "},"Ú":{"ha":577,"x_min":41,"x_max":532,"o":"m 532 699 q 455 512 532 595 q 275 410 379 429 l 275 207 l 412 207 l 412 172 l 275 172 l 275 0 l 179 0 l 179 172 l 41 172 l 41 207 l 179 207 l 179 492 q 289 467 231 467 q 387 526 354 467 q 414 645 414 575 q 393 754 414 700 q 313 871 367 819 q 186 930 250 930 q 119 907 150 930 l 119 964 q 243 988 178 988 q 448 904 364 988 q 532 699 532 819 z "},"Û":{"ha":643,"x_min":339,"x_max":914,"o":"m 914 179 q 830 42 914 96 q 625 -12 747 -12 q 423 42 507 -12 q 339 179 339 96 q 407 304 339 253 q 574 366 471 354 l 574 971 l 677 971 l 677 804 l 831 960 l 874 960 l 711 798 l 890 618 l 817 618 l 677 760 l 677 366 q 848 303 782 354 q 914 179 914 252 m 813 136 q 736 269 813 208 q 570 330 660 330 q 477 298 514 330 q 439 221 439 267 q 513 85 439 146 q 682 24 587 24 q 775 56 736 24 q 813 136 813 87 z "},"Ü":{"ha":886,"x_min":39,"x_max":846,"o":"m 846 203 l 745 203 l 745 110 l 827 110 l 827 77 l 745 77 l 745 0 l 642 0 l 642 77 l 557 77 l 557 110 l 642 110 l 642 203 l 39 203 q 286 501 163 353 q 433 768 433 690 q 389 860 433 822 q 292 897 345 897 q 72 762 140 897 q 163 929 85 871 q 334 983 233 983 q 495 936 429 983 q 561 810 561 889 q 494 610 561 711 q 334 428 442 532 q 138 245 236 338 l 642 245 l 642 332 q 572 386 599 347 q 545 469 545 424 q 588 573 545 530 q 690 616 631 616 q 794 573 751 616 q 838 469 838 530 q 745 334 838 371 l 745 245 l 846 245 l 846 203 m 784 447 q 750 540 784 498 q 671 581 716 581 q 622 556 643 581 q 599 496 600 532 q 632 401 597 445 q 713 358 667 358 q 784 447 784 358 z "},"Ý":{"ha":884,"x_min":50,"x_max":836,"o":"m 836 302 q 733 192 803 239 q 572 122 660 140 l 572 0 l 473 0 l 473 113 q 174 246 297 118 q 50 549 50 374 q 180 859 50 729 q 485 983 310 983 q 644 945 602 983 q 542 954 595 954 q 282 841 392 954 q 172 572 172 728 q 258 334 172 437 q 473 203 343 231 l 473 353 l 376 353 l 376 386 l 473 386 l 473 503 l 572 503 l 572 386 l 671 386 l 671 353 l 572 353 l 572 196 q 836 302 737 200 z "},"Þ":{"ha":730,"x_min":33,"x_max":703,"o":"m 703 689 l 436 689 l 621 503 l 580 464 l 419 628 l 419 221 l 526 221 l 526 187 l 419 187 l 419 0 l 317 0 l 317 187 l 208 187 l 208 221 l 317 221 l 317 628 l 154 464 l 115 503 l 301 689 l 33 689 l 33 749 l 300 749 l 111 937 l 153 978 l 342 789 l 342 896 l 395 896 l 395 789 l 583 979 l 627 936 l 437 749 l 703 749 l 703 689 z "},"ß":{"ha":711,"x_min":33,"x_max":676,"o":"m 676 688 q 551 847 639 785 q 353 909 463 909 q 160 850 245 909 q 33 694 74 790 q 138 900 47 817 q 353 983 229 983 q 571 897 478 983 q 676 688 664 811 m 519 572 l 406 572 l 406 0 l 302 0 l 302 572 l 187 572 l 187 607 l 302 607 l 302 807 l 406 807 l 406 607 l 519 607 l 519 572 z "},"à":{"ha":1124,"x_min":41,"x_max":1089,"o":"m 1089 339 l 1069 138 l 1021 167 q 956 54 975 78 q 836 -7 907 -7 q 669 101 712 -7 q 639 334 645 163 q 546 314 571 314 q 401 350 460 314 q 249 314 336 314 q 111 346 169 314 q 41 452 41 385 l 41 978 l 151 978 l 151 454 q 210 385 151 408 q 308 368 252 368 q 372 373 343 368 q 340 452 340 403 l 340 978 l 452 978 l 452 454 q 504 389 452 414 q 599 368 547 368 q 639 373 614 368 l 639 978 l 746 978 l 746 314 q 861 47 746 47 q 991 183 929 47 l 930 215 l 1089 339 z "},"á":{"ha":711,"x_min":33,"x_max":676,"o":"m 676 633 l 403 319 l 403 144 l 512 144 l 512 102 l 404 102 l 404 0 l 304 0 l 304 102 l 195 102 l 195 144 l 304 144 l 304 319 l 33 633 l 357 981 l 676 633 m 571 603 l 335 865 l 139 653 l 376 383 l 571 603 z "},"â":{"ha":766,"x_min":33,"x_max":730,"o":"m 730 102 l 652 -1 l 575 102 l 606 92 l 606 290 q 533 364 606 364 l 432 364 l 432 92 l 339 92 l 339 364 l 236 364 q 165 290 165 364 l 165 92 l 201 102 l 118 -1 l 33 102 l 71 92 l 71 290 q 201 403 71 403 l 339 403 l 339 575 l 201 575 q 71 686 71 575 l 71 886 l 33 875 l 118 981 l 201 875 l 165 886 l 165 686 q 236 614 165 614 l 339 614 l 339 886 l 432 886 l 432 614 l 533 614 q 606 686 606 614 l 606 886 l 575 875 l 652 981 l 730 875 l 699 886 l 699 686 q 568 575 699 575 l 432 575 l 432 403 l 568 403 q 699 290 699 403 l 699 92 l 730 102 z "},"ã":{"ha":1175,"x_min":36,"x_max":1140,"o":"m 679 760 q 648 648 679 701 q 628 612 629 615 q 616 529 616 581 q 513 676 513 572 q 528 742 513 703 q 550 802 541 772 q 559 885 559 831 q 575 985 559 935 q 612 919 586 953 q 657 857 645 880 q 679 760 679 812 m 903 693 l 618 203 l 555 174 l 272 665 l 335 693 l 596 241 l 842 665 l 903 693 m 1140 546 l 1078 517 l 1021 517 l 618 21 l 555 -7 l 132 517 l 36 517 l 98 546 l 193 546 l 599 43 l 983 517 l 1044 546 l 1140 546 m 639 760 q 614 857 639 818 q 611 803 614 839 q 593 753 602 778 q 575 676 575 703 q 596 621 575 646 q 614 669 600 644 q 639 760 639 725 z "},"ä":{"ha":966,"x_min":32,"x_max":939,"o":"m 868 0 l 32 0 l 456 546 l 456 732 l 329 606 l 503 987 l 668 607 l 543 732 l 543 546 l 939 43 l 868 0 m 475 505 l 121 52 l 831 52 l 475 505 z "},"å":{"ha":472,"x_min":36,"x_max":436,"o":"m 436 231 l 305 143 l 433 61 l 385 -4 l 228 93 l 78 -4 l 47 43 l 175 127 l 36 216 l 82 286 l 191 216 l 191 750 l 82 639 l 244 981 l 411 631 l 293 750 l 293 201 l 404 279 l 436 231 z "},"æ":{"ha":1089,"x_min":56,"x_max":1034,"o":"m 1034 379 l 956 379 q 851 123 950 233 l 904 70 l 875 40 l 821 94 q 565 -13 713 -5 l 565 -88 l 524 -88 l 524 -13 q 267 94 376 -5 l 214 40 l 184 70 l 237 123 q 132 379 139 233 l 56 379 l 56 422 l 132 422 q 238 677 140 567 l 184 731 l 214 761 l 267 706 q 524 812 377 804 l 524 888 l 565 888 l 565 812 q 820 706 712 804 l 875 761 l 904 731 l 850 677 q 956 422 949 567 l 1034 422 l 1034 379 m 701 585 q 565 722 637 679 l 565 460 q 573 458 570 458 l 701 585 m 785 422 q 723 549 761 488 l 602 428 q 606 422 604 425 l 785 422 m 524 462 l 524 743 q 462 753 492 754 q 311 663 369 749 l 515 458 q 524 462 519 461 m 819 255 q 799 379 819 311 l 610 379 q 606 369 608 374 l 803 171 q 819 255 819 210 m 483 433 l 290 624 q 273 540 273 585 q 290 422 273 484 l 476 422 q 483 433 479 427 m 781 134 l 578 336 q 565 330 572 332 l 565 56 q 616 47 592 47 q 781 134 721 47 m 479 364 q 474 379 476 372 l 304 379 q 364 250 327 312 l 479 364 m 524 76 l 524 328 q 508 335 516 330 l 387 213 q 524 76 451 119 z "},"ç":{"ha":716,"x_min":74,"x_max":625,"o":"m 367 47 q 189 119 268 47 l 189 -140 l 74 -140 l 74 754 q 148 925 74 854 q 321 996 221 996 q 494 928 418 996 q 570 762 570 860 q 458 564 570 640 q 578 462 532 534 q 625 313 625 390 q 549 127 625 207 q 367 47 472 47 m 307 529 q 228 492 267 529 q 323 567 260 546 q 416 602 410 597 q 458 715 458 632 q 411 861 458 794 q 283 936 359 936 q 189 772 189 936 l 189 267 q 271 154 218 200 q 397 100 332 100 q 485 153 450 100 q 515 256 515 200 q 490 369 515 311 q 416 473 464 427 q 307 529 359 529 z "},"è":{"ha":1059,"x_min":52,"x_max":1006,"o":"m 1006 400 q 884 107 1006 228 q 593 -13 761 -13 q 465 7 518 -13 q 588 118 545 45 q 632 286 632 191 q 541 506 632 414 q 320 597 449 597 q 227 575 279 597 q 366 743 267 678 q 593 813 468 813 q 886 691 765 813 q 1006 400 1006 568 m 518 -130 l 480 -144 l 52 873 l 90 888 l 104 857 l 319 898 l 146 756 l 518 -130 m 891 377 q 786 630 891 525 q 530 736 680 736 q 264 607 372 736 q 408 641 327 641 q 637 547 543 641 q 731 317 731 452 q 671 135 731 218 q 521 15 612 51 l 530 15 q 785 121 679 15 q 891 377 891 228 z "},"é":{"ha":616,"x_min":0,"x_max":0,"o":""},"ê":{"ha":616,"x_min":0,"x_max":0,"o":""},"ë":{"ha":616,"x_min":0,"x_max":0,"o":""},"ì":{"ha":349,"x_min":0,"x_max":0,"o":""},"í":{"ha":349,"x_min":0,"x_max":0,"o":""},"î":{"ha":349,"x_min":0,"x_max":0,"o":""},"ï":{"ha":349,"x_min":0,"x_max":0,"o":""},"ð":{"ha":772,"x_min":0,"x_max":0,"o":""},"ñ":{"ha":751,"x_min":0,"x_max":0,"o":""},"ò":{"ha":685,"x_min":0,"x_max":0,"o":""},"ó":{"ha":685,"x_min":0,"x_max":0,"o":""},"ô":{"ha":685,"x_min":0,"x_max":0,"o":""},"õ":{"ha":685,"x_min":0,"x_max":0,"o":""},"ö":{"ha":685,"x_min":0,"x_max":0,"o":""},"÷":{"ha":688,"x_min":59,"x_max":629,"o":"m 59 439 l 59 534 l 628 534 l 629 533 l 629 439 l 59 439 m 270 277 l 326 334 q 345 343 336 343 q 366 332 354 343 l 420 274 q 429 254 429 263 q 419 233 429 244 l 365 174 q 345 160 351 160 q 326 170 334 160 l 266 238 q 259 256 259 247 q 270 277 259 266 m 270 747 l 326 804 q 345 813 336 813 q 366 802 354 813 l 420 744 q 429 724 429 733 q 419 703 429 714 l 365 644 q 345 630 351 630 q 326 640 334 630 l 266 708 q 259 726 259 717 q 270 747 259 736 z "},"ø":{"ha":685,"x_min":0,"x_max":0,"o":""},"ù":{"ha":914,"x_min":1,"x_max":914,"o":"m 914 719 q 720 760 828 760 q 396 619 529 760 q 264 286 264 479 q 337 46 264 158 q 528 -121 410 -66 q 545 -125 529 -123 q 553 -133 553 -127 q 547 -133 551 -133 q 160 15 319 -133 q 1 390 1 163 q 154 759 1 606 q 523 911 307 911 q 914 719 753 911 z "},"ú":{"ha":755,"x_min":45,"x_max":711,"o":"m 711 550 q 639 729 711 661 q 456 798 568 798 l 433 798 l 433 987 l 319 987 l 319 882 q 321 819 321 846 q 321 774 321 793 q 219 726 267 758 q 131 646 172 694 q 45 437 45 545 q 115 258 45 327 q 297 191 187 191 l 321 191 q 321 146 321 171 q 319 92 321 122 l 319 0 l 433 0 l 433 212 q 625 340 541 245 q 711 550 711 441 m 619 497 q 567 347 619 415 q 433 261 513 279 l 433 732 q 567 647 515 713 q 619 497 619 581 m 321 262 q 247 295 281 273 q 189 348 213 317 q 150 417 164 379 q 136 497 136 455 q 150 577 136 538 q 189 646 164 615 q 247 700 213 677 q 321 732 281 722 l 321 262 z "},"û":{"ha":878,"x_min":57,"x_max":758,"o":"m 758 -50 l 652 62 q 404 -18 559 -18 q 164 61 265 -18 q 57 285 57 149 q 98 413 57 350 q 200 503 139 476 q 83 721 83 590 q 170 920 83 846 q 380 991 254 991 q 589 930 507 991 q 677 741 679 861 l 677 732 q 371 943 587 943 q 243 894 300 943 q 186 775 186 844 q 235 633 186 700 q 361 561 289 561 q 590 411 539 561 q 485 476 559 454 q 359 494 425 494 q 235 452 290 494 q 175 338 175 406 q 244 134 175 218 q 436 45 319 45 q 615 101 543 45 l 547 172 l 547 275 l 664 153 q 742 278 693 193 q 697 118 741 186 l 758 53 l 758 -50 z "},"ü":{"ha":772,"x_min":43,"x_max":728,"o":"m 728 328 q 628 87 728 187 q 386 -12 528 -12 q 144 87 245 -12 q 43 328 43 187 q 92 503 43 422 q 222 628 142 583 l 134 794 l 85 628 l 61 984 l 347 758 l 170 814 l 260 644 q 386 671 321 671 q 628 570 528 671 q 728 328 728 469 m 595 332 q 489 524 561 444 q 325 611 410 611 q 222 558 264 611 q 180 429 180 505 q 260 170 180 290 q 373 291 300 245 q 534 336 447 336 q 595 332 566 336 m 611 218 l 611 239 q 505 281 559 281 q 385 218 432 281 q 338 85 343 163 q 450 40 393 40 q 559 82 515 40 q 611 218 611 131 z "},"ý":{"ha":872,"x_min":33,"x_max":840,"o":"m 840 415 q 722 131 840 249 q 436 12 603 12 q 152 131 271 12 q 33 415 33 250 q 151 700 33 581 q 436 818 269 818 q 722 701 604 818 q 840 415 840 583 m 768 445 q 673 652 755 572 q 464 747 591 732 l 464 445 l 768 445 m 406 445 l 406 747 q 202 650 282 730 q 106 445 122 570 l 406 445 m 768 387 l 464 387 l 464 83 q 671 183 585 98 q 768 387 757 268 m 406 83 l 406 387 l 106 387 q 205 188 118 275 q 406 83 293 100 z "},"þ":{"ha":1103,"x_min":41,"x_max":1061,"o":"m 1061 493 q 912 134 1061 283 q 551 -16 762 -16 q 192 134 342 -16 q 41 493 41 283 q 192 853 41 704 q 551 1003 342 1003 q 912 853 762 1003 q 1061 493 1061 704 m 994 493 q 864 806 994 676 q 551 936 734 936 q 238 806 368 936 q 109 493 109 676 q 238 180 109 310 q 551 50 368 50 q 864 180 734 50 q 994 493 994 310 z "},"ÿ":{"ha":1103,"x_min":41,"x_max":1061,"o":"m 1061 493 q 912 134 1061 283 q 551 -16 762 -16 q 192 134 342 -16 q 41 493 41 283 q 192 853 41 704 q 551 1003 342 1003 q 912 853 762 1003 q 1061 493 1061 704 z "},"ı":{"ha":429,"x_min":39,"x_max":415,"o":"m 415 28 l 293 28 l 194 268 l 142 268 l 142 28 l 39 28 l 39 602 l 209 602 q 340 566 289 602 q 403 431 403 522 q 352 311 403 353 q 243 272 307 272 l 415 28 m 298 420 q 193 557 298 557 l 142 557 l 142 307 q 253 321 224 307 q 298 420 298 345 z "},"ˆ":{"ha":694,"x_min":150,"x_max":545,"o":"m 150 732 l 307 972 l 387 972 l 545 732 l 505 732 l 347 878 l 189 732 l 150 732 z "},"ˇ":{"ha":694,"x_min":150,"x_max":545,"o":"m 150 972 l 189 972 l 347 827 l 505 972 l 545 972 l 387 731 l 307 731 l 150 972 z "},"ˉ":{"ha":694,"x_min":172,"x_max":522,"o":"m 172 810 l 172 895 l 522 895 l 522 810 l 172 810 z "},"˘":{"ha":694,"x_min":149,"x_max":545,"o":"m 149 915 l 183 915 q 234 842 195 865 q 347 819 273 819 q 460 842 421 819 q 510 915 498 865 l 545 915 q 481 778 531 825 q 347 732 431 732 q 214 779 264 732 q 149 915 163 825 z "},"˙":{"ha":694,"x_min":277,"x_max":422,"o":"m 286 874 l 333 923 q 342 929 337 927 q 351 931 347 931 q 360 929 355 931 q 368 923 364 927 l 416 871 q 421 865 420 869 q 422 855 422 861 q 420 845 422 849 q 415 837 419 841 l 367 785 q 356 776 359 778 q 351 774 353 774 q 340 776 345 774 q 333 782 336 778 l 282 841 q 278 847 279 844 q 277 857 277 851 q 279 865 277 861 q 286 874 281 869 z "},"˚":{"ha":694,"x_min":227,"x_max":468,"o":"m 279 852 q 298 804 279 824 q 347 785 318 785 q 395 804 375 785 q 414 852 414 824 q 394 900 414 880 q 347 920 374 920 q 299 900 319 920 q 279 852 279 880 m 227 852 q 262 938 227 903 q 347 972 296 972 q 433 938 398 972 q 468 852 468 903 q 433 767 468 802 q 347 732 398 732 q 262 767 296 732 q 227 852 227 802 z "},"˛":{"ha":694,"x_min":250,"x_max":500,"o":"m 434 0 q 359 -81 386 -42 q 332 -157 332 -120 q 351 -208 332 -189 q 400 -227 369 -227 q 447 -217 427 -227 q 481 -184 467 -206 l 500 -195 q 438 -260 475 -237 q 357 -283 401 -283 q 280 -259 310 -283 q 250 -198 250 -235 q 291 -92 250 -146 q 401 0 332 -37 l 434 0 z "},"˜":{"ha":694,"x_min":159,"x_max":548,"o":"m 548 937 q 502 833 534 867 q 416 798 469 798 l 413 798 q 336 814 379 798 q 259 830 292 830 q 218 816 233 830 q 195 768 203 802 l 159 768 q 205 875 172 840 q 292 911 238 911 q 369 895 323 910 q 445 879 412 879 l 448 879 q 487 892 472 879 q 511 937 502 906 l 548 937 z "},"˝":{"ha":694,"x_min":147,"x_max":547,"o":"m 147 732 l 245 917 q 276 960 261 947 q 307 972 290 972 q 340 959 326 972 q 353 927 353 945 q 346 903 353 916 q 326 876 339 890 l 186 732 l 147 732 m 340 732 l 438 917 q 469 960 454 947 q 500 972 484 972 q 533 959 519 972 q 547 927 547 945 q 539 903 547 916 q 519 876 532 890 l 380 732 l 340 732 z "},"–":{"ha":751,"x_min":38,"x_max":713,"o":"m 38 284 l 38 366 l 713 366 l 713 284 l 38 284 z "},"—":{"ha":1389,"x_min":0,"x_max":1389,"o":"m 0 284 l 0 366 l 1389 366 l 1389 284 l 0 284 z "},"‘":{"ha":378,"x_min":126,"x_max":297,"o":"m 216 689 q 156 733 186 689 q 126 836 126 778 q 174 990 126 910 q 269 1069 222 1069 l 269 1040 q 210 911 219 1011 q 297 802 210 831 l 297 774 l 216 689 z "},"’":{"ha":378,"x_min":81,"x_max":252,"o":"m 161 1069 q 221 1025 191 1069 q 252 922 252 981 q 203 769 252 848 q 109 689 155 689 l 109 718 q 168 847 159 747 q 81 956 168 928 l 81 985 l 161 1069 z "},"‚":{"ha":378,"x_min":81,"x_max":252,"o":"m 161 191 q 221 146 191 191 q 252 43 252 102 q 203 -110 252 -31 q 109 -190 155 -190 l 109 -161 q 168 -32 159 -132 q 81 77 168 49 l 81 106 l 161 191 z "},"“":{"ha":617,"x_min":126,"x_max":536,"o":"m 216 689 q 156 733 186 689 q 126 836 126 778 q 174 990 126 910 q 269 1069 222 1069 l 269 1040 q 210 911 219 1011 q 297 802 210 831 l 297 774 l 216 689 m 456 689 q 396 733 426 689 q 366 836 366 778 q 414 990 366 910 q 508 1069 462 1069 l 508 1040 q 449 911 458 1011 q 536 802 449 831 l 536 774 l 456 689 z "},"”":{"ha":617,"x_min":81,"x_max":491,"o":"m 161 1069 q 221 1025 191 1069 q 252 922 252 981 q 203 769 252 848 q 109 689 155 689 l 109 718 q 168 847 159 747 q 81 956 168 928 l 81 985 l 161 1069 m 401 1069 q 461 1025 431 1069 q 491 922 491 981 q 443 769 491 848 q 349 689 395 689 l 349 718 q 408 847 398 747 q 320 956 408 928 l 320 985 l 401 1069 z "},"„":{"ha":617,"x_min":81,"x_max":491,"o":"m 161 191 q 221 146 191 191 q 252 43 252 102 q 203 -110 252 -31 q 109 -190 155 -190 l 109 -161 q 168 -32 159 -132 q 81 77 168 49 l 81 106 l 161 191 m 401 191 q 461 146 431 191 q 491 43 491 102 q 443 -110 491 -31 q 349 -190 395 -190 l 349 -161 q 408 -32 398 -132 q 320 77 408 49 l 320 106 l 401 191 z "},"†":{"ha":688,"x_min":48,"x_max":640,"o":"m 330 693 q 293 814 324 759 q 254 901 254 882 q 279 955 254 935 q 344 975 303 975 q 408 956 382 975 q 433 907 433 937 q 396 814 433 886 q 359 693 365 757 q 479 730 424 699 q 566 768 547 768 q 620 744 600 768 q 640 679 640 720 q 622 615 640 640 q 572 589 603 589 q 480 627 551 589 q 359 665 422 658 q 433 477 364 546 q 357 -183 361 165 l 332 -183 q 254 477 328 165 q 330 665 323 546 q 209 628 264 659 q 121 589 140 589 q 68 614 88 589 q 48 679 48 638 q 67 743 48 718 q 115 768 85 768 q 208 730 137 768 q 330 693 266 699 z "},"‡":{"ha":688,"x_min":47,"x_max":640,"o":"m 358 126 q 479 165 422 134 q 572 202 550 202 q 621 177 602 202 q 640 113 640 151 q 619 47 640 72 q 566 23 599 23 q 478 62 547 23 q 358 98 423 93 q 395 -23 364 35 q 433 -116 433 -94 q 407 -164 433 -146 q 343 -183 382 -183 q 278 -163 302 -183 q 254 -110 254 -143 q 292 -22 254 -91 q 329 98 323 33 q 208 61 265 92 q 115 23 136 23 q 66 48 85 23 q 47 113 47 74 q 67 178 47 153 q 121 202 87 202 q 208 163 140 202 q 329 126 264 133 q 254 396 323 279 q 329 665 323 512 q 208 628 264 659 q 121 589 140 589 q 67 614 87 589 q 47 679 47 638 q 66 743 47 718 q 115 768 85 768 q 208 730 136 768 q 329 693 265 699 q 292 814 323 759 q 254 901 254 882 q 278 955 254 935 q 343 975 302 975 q 407 956 382 975 q 433 907 433 937 q 395 814 433 886 q 358 693 364 757 q 478 730 423 699 q 566 768 547 768 q 619 744 599 768 q 640 679 640 720 q 621 615 640 640 q 572 589 602 589 q 479 627 550 589 q 358 665 422 658 q 433 396 363 512 q 358 126 363 279 z "},"•":{"ha":694,"x_min":146,"x_max":548,"o":"m 146 487 q 205 629 146 570 q 348 687 264 687 q 489 628 431 687 q 548 487 548 570 q 489 345 548 404 q 347 286 429 286 q 205 345 263 286 q 146 487 146 404 z "},"…":{"ha":1389,"x_min":87,"x_max":1183,"o":"m 98 113 l 154 170 q 174 180 164 180 q 195 169 182 180 l 249 111 q 257 91 257 100 q 248 70 257 81 l 193 10 q 174 -3 180 -3 q 154 6 163 -3 l 94 75 q 87 92 87 83 q 98 113 87 102 m 562 113 l 617 170 q 637 180 627 180 q 658 169 646 180 l 712 111 q 720 91 720 100 q 711 70 720 81 l 656 10 q 637 -3 643 -3 q 617 6 626 -3 l 557 75 q 551 92 551 83 q 562 113 551 102 m 1025 113 l 1080 170 q 1100 180 1090 180 q 1121 169 1109 180 l 1175 111 q 1183 91 1183 100 q 1174 70 1183 81 l 1120 10 q 1100 -3 1106 -3 q 1080 6 1089 -3 l 1021 75 q 1014 92 1014 83 q 1025 113 1014 102 z "},"‹":{"ha":428,"x_min":118,"x_max":359,"o":"m 118 325 l 350 530 l 359 530 l 359 505 l 220 325 l 359 144 l 359 119 l 350 119 l 118 325 z "},"›":{"ha":428,"x_min":68,"x_max":310,"o":"m 78 119 l 68 119 l 68 144 l 208 325 l 68 505 l 68 530 l 78 530 l 310 325 l 78 119 z "},"⁄":{"ha":232,"x_min":-232,"x_max":463,"o":"m -232 -20 l 406 971 l 463 971 l -174 -20 l -232 -20 z "},"₣":{"ha":688,"x_min":33,"x_max":723,"o":"m 168 242 l 36 242 l 36 283 l 168 283 l 168 779 q 98 939 168 939 l 33 939 l 33 972 l 653 972 l 723 816 l 690 816 q 561 939 650 939 l 347 939 q 277 779 277 939 l 277 541 l 522 541 q 590 583 590 541 l 590 623 l 624 623 l 624 391 l 590 391 l 590 431 q 522 473 590 473 l 277 473 l 277 283 l 409 283 l 409 242 l 277 242 l 277 193 q 347 34 277 34 l 412 34 l 412 0 l 33 0 l 33 34 l 98 34 q 168 193 168 34 l 168 242 z "},"₤":{"ha":688,"x_min":52,"x_max":635,"o":"m 507 913 q 399 935 458 935 l 397 935 q 269 866 330 935 q 212 703 212 803 q 212 682 212 692 q 235 538 212 610 l 492 538 l 492 497 l 248 497 q 266 456 256 477 l 505 456 l 505 416 l 287 416 q 311 322 311 373 q 201 68 311 213 l 473 68 q 602 157 562 68 l 635 157 l 565 0 l 77 0 l 78 34 q 205 317 205 195 q 182 414 205 370 l 180 416 l 64 416 l 64 456 l 161 456 q 143 497 151 477 l 52 497 l 52 538 l 128 538 q 104 669 104 610 q 188 904 104 822 q 398 986 271 986 q 524 977 449 986 q 599 954 599 967 l 599 844 l 559 844 q 507 913 556 886 z "},"₧":{"ha":1375,"x_min":33,"x_max":1334,"o":"m 277 939 l 277 490 q 282 478 279 484 q 355 374 310 409 q 434 345 394 345 q 447 345 441 345 q 533 396 493 351 q 592 516 573 441 q 607 637 607 575 q 606 669 607 654 q 573 818 602 748 q 499 916 544 887 q 423 939 461 939 q 409 939 416 939 l 277 939 m 1015 616 l 893 616 l 893 151 q 916 71 893 96 q 971 45 935 50 l 923 176 l 956 176 q 1034 58 994 88 q 1120 28 1072 28 l 1124 28 q 1227 64 1187 28 q 1267 156 1267 100 q 1091 309 1267 225 q 994 385 1023 345 q 964 484 964 426 q 1014 615 964 566 l 1015 616 m 705 617 q 672 486 700 549 q 576 365 638 408 q 448 322 515 322 q 318 366 380 322 q 277 400 296 380 l 277 193 q 347 34 277 34 l 412 34 l 412 0 l 33 0 l 33 34 l 98 34 q 168 193 168 34 l 168 779 q 98 939 168 939 l 33 939 l 33 972 l 452 972 q 574 930 514 971 q 671 810 636 888 q 706 650 705 734 l 713 650 q 859 890 859 650 l 893 890 l 893 650 l 1069 650 q 1143 663 1097 663 l 1145 663 q 1235 654 1181 663 q 1289 631 1289 645 l 1289 524 l 1261 524 q 1216 597 1258 568 q 1126 625 1175 625 q 1056 601 1082 625 q 1030 535 1030 576 q 1190 386 1030 462 q 1303 306 1272 349 q 1334 202 1334 264 q 1278 45 1334 107 q 1123 -13 1208 -12 q 1052 -5 1084 -13 q 1014 -1 1033 -1 q 989 -3 1002 -1 q 949 -7 970 -7 q 832 32 865 -7 q 793 151 798 71 l 792 151 l 792 617 l 705 617 z "},"€":{"ha":688,"x_min":-30,"x_max":724,"o":"m 95 252 q 43 443 53 344 l -30 443 l -18 484 l 41 484 l 41 503 q 41 524 41 514 l -7 524 l 5 565 l 44 565 q 96 755 54 663 q 249 941 151 876 q 451 1006 347 1006 q 510 1001 480 1006 q 566 981 537 994 q 576 977 571 977 q 600 1008 590 977 l 627 1008 l 684 817 l 657 817 q 564 937 624 907 q 509 959 534 952 l 509 961 q 440 972 475 972 q 417 970 429 972 q 264 893 336 962 q 157 708 192 825 q 131 565 136 637 l 610 565 l 598 524 l 129 524 q 130 484 129 504 l 587 484 l 576 443 l 134 443 q 190 241 145 336 q 321 81 240 134 q 467 34 390 35 q 641 96 593 36 q 691 221 691 157 l 724 221 l 724 124 q 648 38 724 77 q 467 0 577 1 q 247 66 345 0 q 95 252 149 133 z "},"№":{"ha":1540,"x_min":0,"x_max":0,"o":""},"™":{"ha":1015,"x_min":0,"x_max":0,"o":""},"∂":{"ha":688,"x_min":52,"x_max":635,"o":"m 157 364 q 161 311 157 336 q 202 155 170 228 q 283 43 235 81 q 370 7 326 7 q 378 7 374 7 q 465 55 426 11 q 519 177 504 100 q 530 278 530 227 q 527 336 530 307 q 485 493 517 418 q 404 605 452 567 q 317 639 359 639 l 309 639 q 224 592 263 635 q 168 471 184 548 q 157 364 157 414 m 635 323 q 597 153 635 234 q 489 28 559 73 q 344 -17 420 -17 q 198 28 268 -17 q 91 153 129 73 q 52 323 52 234 q 92 494 52 412 q 201 619 131 575 q 344 663 271 663 q 488 619 418 663 q 524 591 507 607 q 366 847 467 751 q 144 952 264 943 l 144 989 q 494 796 352 989 q 635 323 635 603 z "},"∆":{"ha":733,"x_min":4,"x_max":728,"o":"m 349 810 l 73 83 l 616 83 l 349 810 m 371 972 l 728 0 l 4 0 l 371 972 z "},"∏":{"ha":1027,"x_min":33,"x_max":995,"o":"m 347 939 q 277 779 277 939 l 277 -90 q 347 -249 277 -249 l 412 -249 l 412 -283 l 33 -283 l 33 -249 l 98 -249 q 168 -90 168 -249 l 168 779 q 98 939 168 939 l 33 939 l 33 972 l 995 972 l 995 939 l 929 939 q 860 779 860 939 l 860 -90 q 929 -249 860 -249 l 995 -249 l 995 -283 l 615 -283 l 615 -249 l 680 -249 q 750 -90 750 -249 l 750 779 q 680 939 750 939 l 347 939 z "},"∑":{"ha":818,"x_min":81,"x_max":776,"o":"m 718 372 l 184 -248 l 614 -248 q 743 -125 703 -248 l 776 -125 l 706 -282 l 81 -282 l 81 -248 q 153 -212 123 -248 l 603 317 l 153 900 q 81 939 123 939 l 81 972 l 706 972 l 776 815 l 743 815 q 614 939 703 939 l 286 939 l 718 372 z "},"−":{"ha":688,"x_min":59,"x_max":629,"o":"m 59 439 l 59 534 l 628 534 l 629 533 l 629 439 l 59 439 z "},"√":{"ha":688,"x_min":12,"x_max":715,"o":"m 123 0 l 12 243 l 62 267 l 119 142 l 613 1139 l 715 1139 l 715 1098 l 666 1098 l 123 0 z "},"∞":{"ha":688,"x_min":45,"x_max":645,"o":"m 298 512 q 248 602 288 582 q 191 617 216 617 q 175 616 182 617 q 112 586 142 609 q 68 528 83 562 q 54 467 54 497 l 54 462 q 73 401 56 429 q 121 362 90 374 q 163 355 141 355 q 185 357 174 355 q 247 386 217 363 q 298 512 276 409 m 316 466 q 380 362 324 401 q 463 330 427 330 q 477 331 471 330 q 557 366 519 339 q 614 435 595 393 q 632 508 632 471 l 632 515 q 608 589 631 556 q 546 635 585 622 q 494 644 521 644 q 465 642 479 644 q 378 600 419 635 q 316 466 338 564 m 305 561 q 319 608 311 585 q 384 701 342 667 q 471 734 425 734 q 557 701 516 734 q 622 610 599 669 q 645 486 645 551 q 622 363 645 422 q 557 271 599 304 q 471 239 516 239 q 384 272 425 239 q 319 364 342 305 q 305 412 311 388 q 297 384 302 397 q 247 307 279 334 q 180 280 215 280 q 112 308 144 280 q 62 385 79 336 q 45 486 45 434 q 62 587 45 538 q 112 665 79 637 q 180 692 144 692 q 247 665 215 692 q 297 589 279 638 q 305 561 302 575 z "},"∫":{"ha":451,"x_min":-49,"x_max":492,"o":"m -8 -191 q -49 -171 -49 -191 l -49 -63 l -24 -63 q -1 -107 -24 -92 q 42 -121 22 -121 l 43 -121 q 121 -12 98 -121 q 148 203 142 98 l 195 701 l 201 743 q 292 1034 219 904 q 451 1164 366 1164 q 492 1144 492 1164 l 492 1036 l 467 1036 q 444 1080 467 1065 q 401 1095 420 1095 q 322 989 353 1095 q 289 743 292 884 l 239 222 q 151 -62 226 66 q -8 -191 76 -191 z "},"≈":{"ha":688,"x_min":64,"x_max":626,"o":"m 626 714 l 626 608 q 543 542 583 559 q 465 525 503 525 q 344 558 424 525 q 224 591 264 591 q 152 572 190 591 q 64 496 113 553 l 64 602 q 147 669 107 651 q 224 686 187 686 q 348 653 268 686 q 465 619 427 619 q 538 638 500 619 q 626 714 576 657 m 626 478 l 626 372 q 543 306 583 323 q 465 289 503 289 q 344 322 424 289 q 224 355 264 355 q 152 336 190 355 q 64 260 113 317 l 64 366 q 147 433 107 415 q 224 450 187 450 q 348 417 268 450 q 465 383 427 383 q 538 402 500 383 q 626 478 576 421 z "},"≤":{"ha":688,"x_min":59,"x_max":629,"o":"m 629 728 l 205 485 l 629 244 l 629 131 l 59 457 l 59 513 l 629 842 l 629 728 m 59 1 l 59 96 l 628 96 l 629 95 l 629 1 l 59 1 z "},"≥":{"ha":688,"x_min":59,"x_max":629,"o":"m 59 842 l 629 513 l 629 457 l 59 131 l 59 244 l 483 485 l 59 728 l 59 842 m 59 1 l 59 96 l 628 96 l 629 96 l 629 1 l 59 1 z "},"":{"ha":728,"x_min":0,"x_max":0,"o":""},"":{"ha":733,"x_min":0,"x_max":0,"o":""}}}
